<svg id="Laag_1" data-name="Laag 1" xmlns="http://www.w3.org/2000/svg" viewBox="0 0 226.77 226.77"><defs><style>.cls-1{fill:#ffd09a;}.cls-2{font-size:149.01px;}.cls-2,.cls-3,.cls-4{font-family:Quasimodo;}.cls-3{font-size:113.95px;}.cls-4{font-size:35px;}.cls-4,.cls-5{stroke:#000;stroke-miterlimit:10;}.cls-5,.cls-6{fill:#f6f1df;}.cls-5{stroke-width:3px;}</style></defs><rect class="cls-1" width="226.77" height="226.77"/><text class="cls-2" transform="matrix(-0.57, -0.19, -0.32, 0.95, 185.56, 155.28)">I</text><text class="cls-3" transform="matrix(-0.37, -0.21, -0.5, 0.86, 169.91, 124.34)">I</text><text class="cls-4" transform="translate(12.71 201.37)">MunchKing</text><text class="cls-2" transform="matrix(0.57, -0.19, 0.32, 0.95, 41.21, 155.28)">I</text><text class="cls-3" transform="matrix(0.37, -0.21, 0.5, 0.86, 56.86, 124.34)">I</text><path d="M184.54,163.27v-.07a9.11,9.11,0,0,1-.61-2.55l-.15-.07a20.77,20.77,0,0,1,.37-5,14.46,14.46,0,0,0-.51-2.77,21.54,21.54,0,0,1-1.36-3.31,9.34,9.34,0,0,1-.22-1.83,3.09,3.09,0,0,1-.41-2.12,1.22,1.22,0,0,0-.59.29,7.84,7.84,0,0,1-4.25,4q-2.81,1.09-9.68,1.1a9.7,9.7,0,0,1-1.36-.09,11.1,11.1,0,0,0-1.54-.09v1.05l-.9.27-5.43-1.32a24.38,24.38,0,0,0-2.63.62,9.28,9.28,0,0,1-2.62.35,14.49,14.49,0,0,1-3.89-.53,16.78,16.78,0,0,0-4.44-.53c-2.05,0-4.13.08-6.24.22s-4.26.22-6.43.22c-2.77,0-5.58,0-8.41-.17s-5.64-.18-8.42-.18q-5.25,0-10.5.35c-3.5.24-7,.38-10.5.44l-3.07-1a30,30,0,0,0-6.7.7l-17.56.09c-1.32,0-3,0-5.15-.09s-4.17-.21-6.16-.44A22.71,22.71,0,0,1,50,149.7c-1.44-.53-2.17-1.23-2.17-2.11a1.81,1.81,0,0,1,.18-1l-.72-.44c.12-.17,0-.32-.36-.44a7.68,7.68,0,0,0-1.13-.24c.78,2.58-1.63,5.4-2,8a5,5,0,0,1,.37,1.73v4.64a2.64,2.64,0,0,0-.9,1.32,17.2,17.2,0,0,0-.64,2.15q-.27,1.18-.45,2.28a10.84,10.84,0,0,1-.36,1.62l2.53,1.06a3.11,3.11,0,0,0,2.17-.66,8.86,8.86,0,0,0,1.36-1.58l1.27-1.8a3.8,3.8,0,0,1,1.9-1.31,23.27,23.27,0,0,1,4-.75q2.53-.3,5.25-.48c1.81-.12,3.62-.19,5.43-.22s3.26-.05,4.34-.05a2.5,2.5,0,0,1,1-.17h6.7a14.91,14.91,0,0,0,5.16-.91c.1-.15.62-.14.73-.11h0a8.77,8.77,0,0,1,1.7,0h0c.46,0,.91.11,1.36.19l.12,0c.3.06.28.14.15.22l1.45.24c.22,0,.32.1.33.17,3.11-.1,6.28-.22,9.54-.36q6.15-.25,11.58-.26,5.25,0,10.5.48t10.5.48a36.67,36.67,0,0,0,6.33-.57,37.79,37.79,0,0,1,6.52-.57q7.25,0,14.93.31t14.57,1.18a12.69,12.69,0,0,1,4.89,1.32,9,9,0,0,1,2.44,2c.36.44.66.84.93,1.22a4.45,4.45,0,0,0,1.85.17,3.64,3.64,0,0,0,1.29-1.08A3.13,3.13,0,0,0,184.54,163.27Z"/><path class="cls-5" d="M185.23,150.51a2.6,2.6,0,0,1-1.18,2.1,4.54,4.54,0,0,1-2.8.88,42.5,42.5,0,0,1-7-.6,40.85,40.85,0,0,0-6.85-.61h-3.74c-1.33,0-2.72,0-4.15.11s-2.85.16-4.23.27a18.94,18.94,0,0,0-3.62.6,12.63,12.63,0,0,0-1.69.39,7.15,7.15,0,0,0-.92.38,4.58,4.58,0,0,1-.93.16c-.41,0-1.07.06-2,.06a4.33,4.33,0,0,1-.84-.82,1.54,1.54,0,0,1-.39-.93c0-.73.67-1.53,2-2.41a7.79,7.79,0,0,1,3.54-1.42l1.08.44a4.15,4.15,0,0,0,2.92-1,6,6,0,0,0,1.62-2.57,17.68,17.68,0,0,0,.77-3.66c.17-1.52.3-3.12.41-4.81v-2.61a30,30,0,0,1,.28-5.82,30.41,30.41,0,0,1,.69-3.39,2.91,2.91,0,0,1,1.46-2,6.86,6.86,0,0,1-2.15-3.34,38,38,0,0,1-.77-3.77c-.21-1.24-.38-2.5-.54-3.78a8.11,8.11,0,0,0-1.31-3.55,39.63,39.63,0,0,0,.31-4.92V99.12l-.15-7.54-1.23-1q-9.39,11.49-17.7,22.7a160.05,160.05,0,0,0-14.46,23.46q-.77,1.53-1.92,4.48t-2.69,6.13a48.11,48.11,0,0,1-3.23,5.68,9.85,9.85,0,0,1-3.39,3.39,5.52,5.52,0,0,1-2.46-2,15,15,0,0,1-1.54-2.95,24.6,24.6,0,0,1-1-3.23,27.69,27.69,0,0,1-.54-2.95h-.29a6.16,6.16,0,0,1-2.52-2.43c-.43-.88-.84-1.73-1.22-2.54A14,14,0,0,0,99.79,138a4,4,0,0,0-2.23-1.65,120.42,120.42,0,0,1-6-10.87q-2.73-5.58-5.75-11.21t-6.55-11a66.37,66.37,0,0,0-8.56-10.48q-.85,8.61-2.44,16.94a88.53,88.53,0,0,0-1.58,16.61,7.16,7.16,0,0,0,.43,2.43c.29.81.57,1.59.86,2.32a17.76,17.76,0,0,1,.94,2.48,9.55,9.55,0,0,1,.36,2.49,4.81,4.81,0,0,1-.65,2.37,15.73,15.73,0,0,0-1.08,2.37,1.59,1.59,0,0,0-.29,1.05V143a4.36,4.36,0,0,0,.86,2.54,9.38,9.38,0,0,0,2.16,2.15,10.9,10.9,0,0,0,3,1.49,10.12,10.12,0,0,0,3.24.55,10.33,10.33,0,0,1,2.15.17,9.56,9.56,0,0,1,1.3.39,2.79,2.79,0,0,0,.57.33,2,2,0,0,1,.58.33,2.94,2.94,0,0,0,.58.16,2.77,2.77,0,0,1,.71.28,3.74,3.74,0,0,1-1.07,1.6,2.8,2.8,0,0,1-1.95.72A99.31,99.31,0,0,1,67,152.89a102.6,102.6,0,0,0-12.45-.77,17.2,17.2,0,0,0-4.17.55c-.77.15-1.46.3-2.08.45a8.1,8.1,0,0,1-1.49.2,9,9,0,0,1-2.31-.24l-1-.19-.43-2.42a17.5,17.5,0,0,1,2.59-1c1.15-.36,2.34-.81,3.59-1.32s2.25-.92,3.31-1.44,1.63-1.06,1.73-1.65a4.58,4.58,0,0,0,2.15-2.38,9.71,9.71,0,0,0,.65-3.14,19.31,19.31,0,0,0-.14-3.31,22.38,22.38,0,0,1-.22-3,15.44,15.44,0,0,1,.65-4.47,10.38,10.38,0,0,1,2.52-4.14c-.49-.59-1-1.2-1.44-1.82a3.45,3.45,0,0,1-.72-2.16,20.8,20.8,0,0,1,.5-4.58c.34-1.5.65-3,.94-4.47a29.46,29.46,0,0,0,.79-4.52,14,14,0,0,0-.36-4.64c.29-1.1.62-2.22,1-3.36s.77-2.34,1.16-3.59.69-2.47.93-3.64A17.17,17.17,0,0,0,63,88.43a43.81,43.81,0,0,0-.36-4.52,33.14,33.14,0,0,0-1.37-6.24,19,19,0,0,0-2.8-5.57A5.44,5.44,0,0,0,54,69.67a12.11,12.11,0,0,0-2.09.17,12,12,0,0,1-2.08.16,5.6,5.6,0,0,1-2.09-.44,3.15,3.15,0,0,1-1.51-1.1V66.4A8.7,8.7,0,0,1,48.42,66c.88-.07,1.84-.11,2.87-.11s2,0,3,.06,1.82,0,2.5,0l.45.44q7.07,0,13.91-.6t13.77-.61a7.86,7.86,0,0,1,2.28.33,8.39,8.39,0,0,1,2,.88v1.22l-6,3.09a27.74,27.74,0,0,1,1.18,3.7c.3,1.21.64,2.41,1,3.58s.81,2.47,1.25,3.65A13.2,13.2,0,0,0,88.48,85a40.71,40.71,0,0,0,3.9,5A26.86,26.86,0,0,1,95,93a8.22,8.22,0,0,1,1.4,3.42,38.59,38.59,0,0,1,.37,6.4,37.77,37.77,0,0,1,6.56,6.18,66.31,66.31,0,0,1,4.93,6.84q2.21,3.54,4.27,7.23a73.47,73.47,0,0,0,4.86,7.56c.68-1.54,1.55-3.38,2.58-5.51s2.21-4.29,3.53-6.46a52.55,52.55,0,0,1,4.27-6,17.83,17.83,0,0,1,4.79-4.19,38,38,0,0,1,3.6-9q2.43-4.41,5.38-8.94,2.79-4.43,5.74-8.78a73.49,73.49,0,0,0,5.16-8.88,11.07,11.07,0,0,0-1.62-1.22,8.39,8.39,0,0,1-1-.66,10.26,10.26,0,0,0-1-.66c-1.48-1.11-2.21-2-2.21-2.65s.41-1.09,1.25-1.49a5.59,5.59,0,0,1,2.43-.61,8.46,8.46,0,0,1,2.65.44,8.6,8.6,0,0,0,2.8.44q7.22,0,14.43-.16t14.58-.17a4.09,4.09,0,0,1-2.43,3.26,12.46,12.46,0,0,1-5.08,1.16,7.24,7.24,0,0,0-2.73,4,20.3,20.3,0,0,0-.51,4.47,18.48,18.48,0,0,0-.15,2.26,11.54,11.54,0,0,1-.15,1.93,16.88,16.88,0,0,1-.66,1.66,3.21,3.21,0,0,1-1.25,1.32,14.71,14.71,0,0,1,.73,3.37c.1,1.07.15,2.11.15,3.14s-.17,2.08-.22,3.15-.07,2.19-.07,3.37a2.36,2.36,0,0,0,.37,1.1,12,12,0,0,1,.66,1.44,6,6,0,0,1,.44.77,6.62,6.62,0,0,1,.29.77,5.49,5.49,0,0,1,.59,1.33,62,62,0,0,1,1.11,10.81q.08,5.41.07,11,.15,5.52.52,10.65a42.61,42.61,0,0,0,2.28,10.76,2.33,2.33,0,0,0,1,.33,4.17,4.17,0,0,1,1.18.34,7.08,7.08,0,0,0,2.06.55c.69.22,1.25.42,1.69.6A.91.91,0,0,1,185.23,150.51Z"/><rect class="cls-6" x="104.86" y="39.94" width="30.68" height="21.17" transform="translate(4.11 109.88) rotate(-49.88)"/><rect class="cls-6" x="97.99" y="28.05" width="30.68" height="21.17" transform="translate(10.76 100.4) rotate(-49.88)"/><path d="M145.9,44.6a2.11,2.11,0,0,0-.64-1.27l-2.65-.19a9.5,9.5,0,0,0-1.8-1.84,4.26,4.26,0,0,1-1.45-2.21q-2.4-3.3-4.67-5.89t-4.58-5.7a7.23,7.23,0,0,1-.85-1.69,6.15,6.15,0,0,0-.95-1.7c-1.25-1.63-2.51-3.29-3.76-5-.51-.69-1-1.35-1.57-2-1-.67-1.87-1.43-2.85-2.18a9.32,9.32,0,0,1-1.72-1.65,2.92,2.92,0,0,1-.54-.38,2.14,2.14,0,0,1-.84,0l-.11-.05a2.5,2.5,0,0,1-.47,0,6.72,6.72,0,0,0-1.4.74,3.17,3.17,0,0,0-.83,1.19c-.29,2.07-.72,3.54-2.28,4.31l-2.37,3.41q-1.63,2.35-3.51,4.9t-3.51,4.89q-1.89,2.64-3.68,4.76a41.29,41.29,0,0,1-4.29,4.29A2.68,2.68,0,0,1,93.77,43a5.92,5.92,0,0,1-1.45.94c-.55.25-1.07.52-1.59.8A2.47,2.47,0,0,0,89.62,46l.09.57a.93.93,0,0,0,.34.47l.25.28a1.18,1.18,0,0,0,.52.19,4,4,0,0,0,.47.14,1.23,1.23,0,0,1,.47.24A2.37,2.37,0,0,0,93,47.52a2,2,0,0,1,1-.33,5.18,5.18,0,0,1,1,.09,9.83,9.83,0,0,1,1.24.38v-.75c2,.12,4,.31,5.87.56.66.09,1.36.11,2,.15a4.11,4.11,0,0,0,.39-.54,3.33,3.33,0,0,0,.35-1s0-.09,0-.15c.16-1.2-.4-2.24-.62-3.46a2.83,2.83,0,0,1-.1-1.34,3.94,3.94,0,0,1-.06-1.13c0-.15,0-.27,0-.44a9.24,9.24,0,0,1,1.28-3.48c.86-1.64,1.88-3.4,3.08-5.28s2.4-3.69,3.6-5.41,2.14-3.07,2.82-4q1.55,2,3.77,4.95c1.48,2,3,4,4.45,6s2.84,3.95,4.07,5.7,2.1,3.08,2.61,4v0a9.89,9.89,0,0,1,1.8,2.44,2.81,2.81,0,0,0,.38.55l.24.21h0v0a.47.47,0,0,1,.06.09,4.78,4.78,0,0,0,2,.91,13.3,13.3,0,0,0,1.4.27c.85,0,1.7,0,2.46,0a8.17,8.17,0,0,1,2.74.7,9.21,9.21,0,0,0,2.57.19,8.06,8.06,0,0,0,1.88-.42,1.81,1.81,0,0,0,1.2-1.37A1.5,1.5,0,0,1,145.9,44.6Z"/><path d="M145,45l-1.1-.74c-1.69.25-3.36.48-5,.7s-3.28.42-4.92.6l-.5-.37c-.47,0-.92.06-1.36.07a0,0,0,0,0,0,0c0,.17-.14.32-.3.43,0,0,0,0,0,0-.38.66-1.34.93-1.72,1.69a5.94,5.94,0,0,0-.36,2.47,5.1,5.1,0,0,1-1.13,2.76c0,.16-.1.32-.17.49a28.26,28.26,0,0,1-2.59,4.61q-1.52,2.41-3.3,4.8t-3,4.24c-.39-.56-.87-1.32-1.44-2.29s-1.18-1.44-1.86-1.44c-.4,0-1-.56-1.9-1.68s-1.81-2.4-2.8-3.86-1.92-2.92-2.79-4.38-1.48-2.53-1.82-3.22v0a1.12,1.12,0,0,1-.07-.42,3.48,3.48,0,0,1-.31-.82,5,5,0,0,0-1-2,1.79,1.79,0,0,1-.45-.55l0,0a.22.22,0,0,1,0-.29l-.35.06a13.89,13.89,0,0,1-3,.47H98.38a12.91,12.91,0,0,0-2.92-.7,24,24,0,0,0-3-.23c-.29,0-.57.2-.85.6A4.91,4.91,0,0,0,91,47a1.72,1.72,0,0,0,.5,1.31,3.92,3.92,0,0,0,1.19.74c.45.19.9.36,1.36.52a2,2,0,0,1,1,.69,17,17,0,0,1,2.79,2.24A6.57,6.57,0,0,1,99,54.1a4.07,4.07,0,0,1,.42.8c.11.28.23.57.34.88a17.83,17.83,0,0,0,1.61,2.42q3.14,4.11,6.26,8.11t6.34,8s.07,0,.07,0,0,.18.06.28c.66.56,1.25,1.28,2,2a1.59,1.59,0,0,0,.21.15l.4,0a4.86,4.86,0,0,1,.29-.55c1.28-2.15,3.22-3.44,4.59-5.42.12-.24.27-.45.37-.7,0,0,0,0,.09,0,.1-.18.23-.33.32-.52s.16-.1.31-.1c.48-.63,1-1.36,1.69-2.32.9-1.31,1.92-2.7,3.05-4.19s2.3-3,3.51-4.62,2.42-3,3.6-4.33a39.61,39.61,0,0,1,3.35-3.31,6,6,0,0,1,2.66-1.53c.17-.06.51-.22,1-.47a16.91,16.91,0,0,0,1.57-.88c.53-.34,1-.67,1.44-1s.63-.53.63-.66v-.65Z"/></svg>