<svg id="Laag_1" data-name="Laag 1" xmlns="http://www.w3.org/2000/svg" viewBox="0 0 217.7368 155.5263">
  <defs>
    <style>
      .cls-1, .cls-2 {
        fill: #ffd09a;
      }

      .cls-1 {
        stroke: #000;
        stroke-miterlimit: 10;
        stroke-width: 3px;
      }
    </style>
  </defs>
  <title>icon_dark</title>
  <path d="M234.7188,87.5215l1.2617,1.0527.6074-.1094a15.0464,15.0464,0,0,1,2.8418,2.293,8.0409,8.0409,0,0,0,2.9355,2.0108l4.5264,1.5244a2.743,2.743,0,0,1,1.5186-.2754,20.9779,20.9779,0,0,1,2.2587.2109q1.2247.1758,2.34.3945a12.869,12.869,0,0,0,1.6748.2491l.3594,2.3222a2.2565,2.2565,0,0,1-1.211,1.48,9.0058,9.0058,0,0,1-1.8945.541q-1.0635.1949-2.084.4a3.2284,3.2284,0,0,0-1.7793,1.0507,16.7847,16.7847,0,0,0-1.7724,2.8623q-.9654,1.88-1.8487,3.9366-.8832,2.0625-1.6406,4.166-.7544,2.1034-1.1836,3.374a1.59,1.59,0,0,0-.4316.72c-.1123.3311-.1993.5879-.2618.7764q-.7617,2.26-1.498,4.4473a10.1017,10.1017,0,0,1-2.3428,3.8506l-.0019,2.8281q-1.692,4.4647-3.5655,9.1767-1.8735,4.7169-3.3,8.9522a76.31,76.31,0,0,0-2.288,8.3476,75.5569,75.5569,0,0,1-2.2881,8.35,24.3,24.3,0,0,1-2.22,4.754,25.2356,25.2356,0,0,0-2.2666,4.8974q-1.9027,5.65-3.624,11.751a112.2655,112.2655,0,0,0-2.6748,11.7568,8.7781,8.7781,0,0,0-.0029,4.2432,8.0833,8.0833,0,0,0,1.2793,2.5547q.7691.9652,1.3945,1.6484a1.34,1.34,0,0,1,.3877,1.3887,2.0177,2.0177,0,0,1-.2754.5351,2.0857,2.0857,0,0,0-.2754.5362c-.3164,0-.6552.0156-1.0166.0517a2.3155,2.3155,0,0,0-1.0244.3614,7.9851,7.9851,0,0,0-1.1045-1.2364,4.8988,4.8988,0,0,0-1.1152-.9257q-.4263-.1436-.94-.3165a1.7694,1.7694,0,0,0-1.0342-.0341l-.2275-1.02a26.2939,26.2939,0,0,0-7.52-1.6679,30.0728,30.0728,0,0,1-7.5684-1.5264,6.98,6.98,0,0,0,.2471-1.0166,7.9773,7.9773,0,0,1,.2959-1.1592c.126-.375.2373-.706.333-.9883a.9319.9319,0,0,1,.5781-.5908,7.3128,7.3128,0,0,0,5.004-2.01q1.8047-1.8267,3.6113-7.1963a6.5546,6.5546,0,0,0,.2715-1.0869,7.7043,7.7043,0,0,1,.3183-1.23l1.0254.3457.4942-.62.1455-4.6679a17.1365,17.1365,0,0,1,1.2871-1.8467,6.1336,6.1336,0,0,0,1.03-1.9326,9.7386,9.7386,0,0,0,.5108-3.209,11.1755,11.1755,0,0,1,.6523-3.6318q.8087-2.398,1.8545-4.8,1.0444-2.395,1.9014-4.9415,1.0927-3.246,2.04-6.624.9463-3.372,2.041-6.624,1.3785-4.0942,3.1-8.0742,1.72-3.9786,3.1845-8.0479l-.1308-2.7168a20.0965,20.0965,0,0,1,2.4423-4.9941l4.6983-13.67q.5229-1.5528,1.2695-4.0528a45.2478,45.2478,0,0,0,1.19-4.9443,15.7828,15.7828,0,0,0,.2451-4.3994q-.1977-1.9527-1.4785-2.3848a2.2933,2.2933,0,0,0-.9873-.1748l-.2364-.709c-.2031.0371-.3125-.1054-.332-.4257a4.6511,4.6511,0,0,1,.0772-1.0752c.07-.3936.1308-.7666.1855-1.1172a2.36,2.36,0,0,0,.0049-.8623A7.062,7.062,0,0,1,234.7188,87.5215Z" transform="translate(-37.3062 -64.4912)"/>
  <path d="M237.8633,91.6973l.4814.8076.3653-.0508a6.81,6.81,0,0,1,1.1,1.7627,3.3923,3.3923,0,0,0,1.2149,1.5664l2.2148,1.292a1.46,1.46,0,0,1,.9131-.126,8.4836,8.4836,0,0,1,1.2256.2529q.6489.1816,1.2285.3887a5.2582,5.2582,0,0,0,.8887.2539l-.3027,1.67a2.1658,2.1658,0,0,1-1.002.9981,5.2017,5.2017,0,0,1-1.1836.3c-.4267.0605-.8457.1221-1.2578.1895a2.4206,2.4206,0,0,0-1.2305.6669,17.7843,17.7843,0,0,0-1.6181,1.9581q-.9507,1.2935-1.8955,2.7207t-1.8272,2.8916q-.88,1.4633-1.3994,2.35a1.6613,1.6613,0,0,0-.3984.4931q-.2022.3443-.3164.54-.92,1.5762-1.8086,3.1006a10.4832,10.4832,0,0,1-2.1543,2.6347l-.6153,2.0156q-1.9218,3.1041-4,6.375-2.0771,3.2725-3.8,6.2247-1.6654,2.8565-3.1006,5.8437t-3.1015,5.8428a26.2381,26.2381,0,0,1-2.2813,3.2861,27.01,27.01,0,0,0-2.3379,3.3838q-2.2983,3.9375-4.5927,8.2061t-4.0586,8.2519a8.7237,8.7237,0,0,0-.9229,3.0225,5.6063,5.6063,0,0,0,.1651,1.8769q.2211.7223.4257,1.2383a1.1006,1.1006,0,0,1-.0839,1.0068,2.1692,2.1692,0,0,1-.2706.3692,2.175,2.175,0,0,0-.2714.3691,4.7108,4.7108,0,0,0-.5821-.0107,1.4624,1.4624,0,0,0-.6562.2119,4.1546,4.1546,0,0,0-.3535-.9316,2.1871,2.1871,0,0,0-.4248-.71c-.14-.0811-.292-.1709-.46-.2676a.76.76,0,0,0-.5742-.0723l.0937-.7363a10.1387,10.1387,0,0,0-3.8681-1.5312,11.6845,11.6845,0,0,1-3.9248-1.4326,7.756,7.756,0,0,0,.3593-.7129,8.8467,8.8467,0,0,1,.418-.8125c.1523-.2608.2871-.4912.4023-.6885a.852.852,0,0,1,.4541-.3945,4.7512,4.7512,0,0,0,3.251-1.2032,21.1522,21.1522,0,0,0,3.5938-4.9609,6.9612,6.9612,0,0,0,.39-.7627,8.4742,8.4742,0,0,1,.4463-.8613l.502.2929.4121-.42,1.0957-3.3183c.3887-.4747.7656-.8936,1.125-1.2549a6.5142,6.5142,0,0,0,1-1.33A10.3609,10.3609,0,0,0,205.94,151.5a11.8618,11.8618,0,0,1,1.1562-2.5576q.9756-1.6729,2.085-3.335,1.1088-1.6581,2.1435-3.4326,1.32-2.2617,2.586-4.625,1.2655-2.36,2.5878-4.625,1.6641-2.855,3.4971-5.6113t3.54-5.5869l.5156-1.9414a21.5317,21.5317,0,0,1,2.46-3.4454l5.6123-9.5234q.63-1.0811,1.5948-2.8291.9624-1.7447,1.7431-3.4678a16.2845,16.2845,0,0,0,1.0938-3.123q.3135-1.3989-.3145-1.7656a.912.912,0,0,0-.5166-.17l.02-.5146q-.1817.0249-.0937-.32a4.8024,4.8024,0,0,1,.2764-.7608q.1875-.4159.3466-.7881a2.3191,2.3191,0,0,0,.1914-.6142A5.332,5.332,0,0,1,237.8633,91.6973Z" transform="translate(-37.3062 -64.4912)"/>
  <path d="M59.6528,88.7261a2.373,2.373,0,0,0,.0049.8623q.0813.5259.1856,1.1172a4.651,4.651,0,0,1,.0771,1.0752c-.02.32-.1289.4629-.332.4257l-.2363.709a2.2935,2.2935,0,0,0-.9874.1748q-1.281.4307-1.479,2.3848a15.8225,15.8225,0,0,0,.2456,4.3994,45.3633,45.3633,0,0,0,1.1895,4.9443q.7457,2.5005,1.27,4.0528l4.6983,13.67a20.0967,20.0967,0,0,1,2.4424,4.9941L66.6,130.2524q1.4634,4.0694,3.1851,8.0479,1.72,3.9814,3.0991,8.0742,1.095,3.25,2.0405,6.624.9463,3.3795,2.04,6.6241.8555,2.5414,1.9014,4.9414t1.8545,4.8a11.1755,11.1755,0,0,1,.6523,3.6318,9.7512,9.7512,0,0,0,.51,3.209,6.1346,6.1346,0,0,0,1.0308,1.9326,17.165,17.165,0,0,1,1.2871,1.8467l.1455,4.668.4941.62,1.0249-.3457a7.66,7.66,0,0,1,.3189,1.23,6.5812,6.5812,0,0,0,.271,1.0869q1.8075,5.3686,3.6118,7.1963a7.3122,7.3122,0,0,0,5.0034,2.01.9333.9333,0,0,1,.5791.5909c.0952.2822.2065.6132.3325.9882a8.0291,8.0291,0,0,1,.2959,1.1592,7.0064,7.0064,0,0,0,.2471,1.0166,30.0675,30.0675,0,0,1-7.5684,1.5264,26.2939,26.2939,0,0,0-7.52,1.6679l-.2275,1.02a1.7694,1.7694,0,0,0-1.0342.0342l-.9395.3164a4.8928,4.8928,0,0,0-1.1147.9257,8.0012,8.0012,0,0,0-1.105,1.2364,2.3149,2.3149,0,0,0-1.0249-.3614c-.3613-.0361-.7-.0517-1.0161-.0517a2.0851,2.0851,0,0,0-.2754-.5361,2.0037,2.0037,0,0,1-.2754-.5352,1.3393,1.3393,0,0,1,.3882-1.3887q.6262-.6825,1.394-1.6484a8.1013,8.1013,0,0,0,1.28-2.5547,8.7841,8.7841,0,0,0-.0034-4.2432,112.2149,112.2149,0,0,0-2.6748-11.7568q-1.7218-6.1011-3.624-11.751a25.1816,25.1816,0,0,0-2.2671-4.8974,24.293,24.293,0,0,1-2.2192-4.7539,75.6349,75.6349,0,0,1-2.2881-8.35,76.216,76.216,0,0,0-2.2881-8.3477q-1.4268-4.2363-3.3-8.9522-1.8721-4.7109-3.5655-9.1767l-.0019-2.8281a10.1017,10.1017,0,0,1-2.3428-3.8506q-.736-2.1856-1.498-4.4473c-.063-.1885-.1494-.4453-.2613-.7764a1.5984,1.5984,0,0,0-.4321-.72q-.4276-1.2714-1.1836-3.374-.758-2.1035-1.6406-4.166-.8847-2.0581-1.8486-3.9365a16.8145,16.8145,0,0,0-1.772-2.8623,3.2336,3.2336,0,0,0-1.78-1.0508q-1.0209-.205-2.0835-.3994a8.9981,8.9981,0,0,1-1.894-.5411,2.2556,2.2556,0,0,1-1.2114-1.48l.3593-2.3222a12.89,12.89,0,0,0,1.6748-.249q1.1148-.2169,2.34-.3946a20.9773,20.9773,0,0,1,2.2588-.2109,2.7447,2.7447,0,0,1,1.5185.2754l4.5264-1.5244a8.0449,8.0449,0,0,0,2.936-2.0108,15.0245,15.0245,0,0,1,2.8413-2.2929l.6075.1093L57.63,87.521A7.0629,7.0629,0,0,1,59.6528,88.7261Z" transform="translate(-37.3062 -64.4912)"/>
  <path d="M55.8848,92.4624a2.3584,2.3584,0,0,0,.19.6143q.16.372.3472.788a4.8514,4.8514,0,0,1,.2763.7608c.0591.23.0279.3369-.0937.32l.0205.5146a.912.912,0,0,0-.5166.17q-.627.3662-.314,1.7656a16.2456,16.2456,0,0,0,1.0933,3.123q.7793,1.7212,1.7431,3.4678t1.5953,2.8291l5.6118,9.5235a21.5313,21.5313,0,0,1,2.46,3.4453l.5161,1.9414q1.7079,2.8329,3.54,5.5869,1.8325,2.7584,3.4976,5.6113,1.322,2.2647,2.5869,4.625t2.5864,4.625q1.0342,1.7725,2.1436,3.4326,1.1088,1.6641,2.0849,3.335A11.92,11.92,0,0,1,86.41,151.5a10.33,10.33,0,0,0,.9838,2.2627,6.5114,6.5114,0,0,0,1,1.33q.54.542,1.1246,1.2549l1.0961,3.3183.4126.42.5015-.2929a8.4643,8.4643,0,0,1,.4463.8613,7.1177,7.1177,0,0,0,.3892.7627,21.1478,21.1478,0,0,0,3.5942,4.9609,4.7521,4.7521,0,0,0,3.251,1.2032.85.85,0,0,1,.4541.3945c.1152.1973.2495.4277.4023.6885a8.8422,8.8422,0,0,1,.4175.8125,7.59,7.59,0,0,0,.36.7129,11.6887,11.6887,0,0,1-3.9253,1.4326,10.1369,10.1369,0,0,0-3.8677,1.5312l.0932.7364a.76.76,0,0,0-.5742.0722c-.1675.0967-.3208.1865-.46.2676a2.1917,2.1917,0,0,0-.4253.71,4.1941,4.1941,0,0,0-.3531.9316,1.4605,1.4605,0,0,0-.6557-.2119,4.7047,4.7047,0,0,0-.582.0107,2.2311,2.2311,0,0,0-.2715-.3691,2.1479,2.1479,0,0,1-.271-.3691,1.1008,1.1008,0,0,1-.084-1.0069q.2036-.5155.4258-1.2383a5.6077,5.6077,0,0,0,.1655-1.8769,8.74,8.74,0,0,0-.9233-3.0225q-1.7652-3.9843-4.0586-8.2519-2.2955-4.2686-4.5923-8.2061a27.0134,27.0134,0,0,0-2.3384-3.3838,26.2837,26.2837,0,0,1-2.2813-3.2861q-1.6654-2.855-3.101-5.8428t-3.1011-5.8437q-1.7226-2.9517-3.8-6.2246t-4-6.375l-.6157-2.0157a10.4862,10.4862,0,0,1-2.1533-2.6347q-.89-1.5235-1.81-3.1006-.1143-.1963-.3154-.54a1.67,1.67,0,0,0-.4-.4931q-.5163-.8848-1.3989-2.35t-1.8276-2.8916q-.9456-1.4283-1.895-2.7207a17.5967,17.5967,0,0,0-1.6187-1.958,2.4165,2.4165,0,0,0-1.23-.667c-.4126-.0674-.831-.1289-1.2583-.1895a5.1907,5.1907,0,0,1-1.1831-.3,2.1645,2.1645,0,0,1-1.0019-.998l-.3033-1.67a5.2453,5.2453,0,0,0,.8887-.2539q.5793-.2065,1.23-.3886a8.4788,8.4788,0,0,1,1.2251-.253,1.4625,1.4625,0,0,1,.9136.126l2.2148-1.292a3.3923,3.3923,0,0,0,1.2149-1.5664,6.781,6.781,0,0,1,1.1-1.7627l.3652.0508.481-.8076A5.3224,5.3224,0,0,1,55.8848,92.4624Z" transform="translate(-37.3062 -64.4912)"/>
  <path d="M217.3294,214.9914l-.0138-.0451-.0081-.0261a8.7678,8.7678,0,0,1-.6057-2.5471l-.1541-.0747a20.6319,20.6319,0,0,1,.3753-4.9983,14.5951,14.5951,0,0,0-.5126-2.7689,21.31,21.31,0,0,1-1.36-3.3126,9.4875,9.4875,0,0,1-.2249-1.8264,3.1229,3.1229,0,0,1-.4091-2.1251,1.2208,1.2208,0,0,0-.5846.294,7.8568,7.8568,0,0,1-4.2533,3.9916q-2.8031,1.098-9.6833,1.0965a9.8937,9.8937,0,0,1-1.3577-.0879A11.5709,11.5709,0,0,0,197,202.4734v1.0528l-.9055.2633-5.43-1.3161a25.2022,25.2022,0,0,0-2.6245.6141,9.1376,9.1376,0,0,1-2.6244.3512,14.5216,14.5216,0,0,1-3.8911-.5266,16.691,16.691,0,0,0-4.4345-.5262q-3.0747,0-6.2444.2191-3.1643.22-6.4255.22-4.1613,0-8.4156-.1754-4.2508-.1754-8.4166-.1758-5.2479,0-10.4972.3512t-10.4977.4382l-3.0772-.9648a30.1315,30.1315,0,0,0-6.6967.702l-17.5566.0875q-1.99,0-5.1583-.0875-3.165-.0863-6.1538-.4387a23.02,23.02,0,0,1-5.1583-1.14q-2.1724-.79-2.1722-2.1056a1.8389,1.8389,0,0,1,.1811-.9649l-.7239-.4382c.1214-.1754,0-.3208-.3622-.4387a6.7283,6.7283,0,0,0-1.1236-.24c.7758,2.578-1.6368,5.4027-1.9662,7.987A4.9019,4.9019,0,0,1,77,206.9474v4.649a2.6064,2.6064,0,0,0-.905,1.3157,17.1068,17.1068,0,0,0-.6333,2.1493q-.2716,1.1843-.4528,2.2805a10.4665,10.4665,0,0,1-.3617,1.6232l2.5339,1.0523a3.1317,3.1317,0,0,0,2.1722-.6578,8.9682,8.9682,0,0,0,1.3572-1.579q.6366-.9211,1.2672-1.798a3.8071,3.8071,0,0,1,1.9-1.3157,24.6994,24.6994,0,0,1,3.9821-.7458q2.5367-.3064,5.2489-.4824,2.715-.1746,5.43-.22,2.7148-.0428,4.3438-.0437a2.3359,2.3359,0,0,1,.9956-.1754h6.6966a14.8647,14.8647,0,0,0,5.159-.9055c.1015-.15.6228-.14.73-.11h0a8.58,8.58,0,0,1,1.7073.0065h.0014c.4526.0423.9048.1078,1.36.1907.04.0073.08.0127.12.02.2951.0549.275.1445.1489.2215.481.08.9614.161,1.4483.2348.2218.0335.3156.1025.3245.1734,3.1131-.1022,6.28-.218,9.5441-.3577q6.1554-.2631,11.5834-.2633,5.2507,0,10.4977.4825,5.2508.4833,10.4977.4824a36.603,36.603,0,0,0,6.3345-.57,37.8153,37.8153,0,0,1,6.5156-.57q7.2419,0,14.9321.3071,7.6956.308,14.5709,1.184a12.4958,12.4958,0,0,1,4.8867,1.3161,9.0605,9.0605,0,0,1,2.4433,1.9735c.3546.4392.656.8353.9333,1.2117a4.4771,4.4771,0,0,0,1.85.1774,3.7175,3.7175,0,0,0,1.2822-1.0868A3.106,3.106,0,0,0,217.3294,214.9914Z" transform="translate(-37.3062 -64.4912)"/>
  <path class="cls-1" d="M218.0154,202.2339a2.5743,2.5743,0,0,1-1.1781,2.0972,4.545,4.545,0,0,1-2.798.8828,42.2565,42.2565,0,0,1-6.995-.607A41.4659,41.4659,0,0,0,200.1965,204h-3.735q-2.0015,0-4.1538.1093-2.157.11-4.2308.2734a18.6531,18.6531,0,0,0-3.6154.6014,12.2088,12.2088,0,0,0-1.6923.3827,9.5566,9.5566,0,0,0-.923.3832,4.1646,4.1646,0,0,1-.9231.164q-.617.0537-2,.0547a4.0484,4.0484,0,0,1-.8462-.8206,1.5328,1.5328,0,0,1-.3846-.9294q0-1.0923,2-2.4061a7.7155,7.7155,0,0,1,3.5385-1.4219l1.0769.4373a4.1693,4.1693,0,0,0,2.9231-.9841,6.0645,6.0645,0,0,0,1.6154-2.57,17.4605,17.4605,0,0,0,.7692-3.6636q.2525-2.2712.4131-4.8076l.0042-2.6082a29.6951,29.6951,0,0,1,.275-5.8183,31.7667,31.7667,0,0,1,.6923-3.39,2.9119,2.9119,0,0,1,1.4615-1.9687,6.78,6.78,0,0,1-2.1538-3.336q-.4616-1.805-.7692-3.7734-.3108-1.8587-.5385-3.7733a8.2108,8.2108,0,0,0-1.3077-3.5542A40.7209,40.7209,0,0,0,188,155.658v-4.8121l-.1538-7.5468-1.2308-.9841q-9.3862,11.4842-17.6923,22.6944a159.8679,159.8679,0,0,0-14.46,23.46q-.7724,1.5327-1.9231,4.4841-1.1538,2.953-2.6923,6.1247a46.8377,46.8377,0,0,1-3.2308,5.6874,9.9467,9.9467,0,0,1-3.3846,3.3907,5.52,5.52,0,0,1-2.4621-2.0234,14.773,14.773,0,0,1-1.5384-2.9533,23.6522,23.6522,0,0,1-1-3.2261A26.0005,26.0005,0,0,1,137.6928,197h-.2952a6.116,6.116,0,0,1-2.5171-2.4282q-.6474-1.3242-1.2227-2.5386a13.5592,13.5592,0,0,0-1.0788-2.3179,3.9712,3.9712,0,0,0-2.23-1.6557,120.8068,120.8068,0,0,1-6.0412-10.8721q-2.7336-5.5722-5.7536-11.2036-3.0205-5.6287-6.5442-11.0376a66.7589,66.7589,0,0,0-8.5584-10.4859q-.8629,8.61-2.4452,16.9429a88.77,88.77,0,0,0-1.5823,16.6118,7.201,7.201,0,0,0,.4316,2.4283q.4314,1.2157.863,2.3178a16.2818,16.2818,0,0,1,.9349,2.4839,9.1467,9.1467,0,0,1,.36,2.4834,4.8082,4.8082,0,0,1-.6472,2.3731,15.5518,15.5518,0,0,0-1.0788,2.373A1.5707,1.5707,0,0,0,100,193.5234v1.1587a4.3162,4.3162,0,0,0,.863,2.5386,9.2953,9.2953,0,0,0,2.1576,2.1523,10.7619,10.7619,0,0,0,2.9487,1.49,10.1451,10.1451,0,0,0,3.2364.5517,10.4012,10.4012,0,0,1,2.1576.1656,9.8707,9.8707,0,0,1,1.2945.3867,2.2135,2.2135,0,0,0,.5754.331,2.41,2.41,0,0,1,.5753.3311,3.2026,3.2026,0,0,0,.5754.1655,2.94,2.94,0,0,1,.7192.2759,3.7347,3.7347,0,0,1-1.0788,1.6006,2.7919,2.7919,0,0,1-1.9418.7173,100.4762,100.4762,0,0,1-12.2983-.7725,101.65,101.65,0,0,0-12.4415-.7724,16.8349,16.8349,0,0,0-4.1714.5517q-1.1529.2226-2.0856.4414a8.3781,8.3781,0,0,1-1.4853.2091,9.1318,9.1318,0,0,1-2.3125-.2451q-.5113-.1059-1.0208-.1847l-.4316-2.4282a18.51,18.51,0,0,1,2.5891-.9937q1.7262-.5508,3.596-1.3242,1.7261-.6629,3.3083-1.435t1.7261-1.6558a4.6,4.6,0,0,0,2.1571-2.373,9.94,9.94,0,0,0,.6473-3.1456,19.1957,19.1957,0,0,0-.1439-3.3115,23.2908,23.2908,0,0,1-.2157-2.98,15.4417,15.4417,0,0,1,.6472-4.4707,10.4926,10.4926,0,0,1,2.5172-4.1391q-.7213-.8818-1.4384-1.8208a3.4292,3.4292,0,0,1-.7192-2.1524,20.946,20.946,0,0,1,.5035-4.581q.5027-2.261.9349-4.47a28.4567,28.4567,0,0,0,.7911-4.5254,13.8372,13.8372,0,0,0-.36-4.6358q.4316-1.656,1.0069-3.3667.5732-1.71,1.1507-3.5874.5733-1.875.935-3.6421a17.2332,17.2332,0,0,0,.36-3.4218,44.26,44.26,0,0,0-.36-4.5254,33.0879,33.0879,0,0,0-1.3665-6.2364,19.07,19.07,0,0,0-2.8049-5.5742,5.4418,5.4418,0,0,0-4.53-2.4282,11.9976,11.9976,0,0,0-2.0857.1655,12.0288,12.0288,0,0,1-2.0856.1656,5.4791,5.4791,0,0,1-2.0857-.4414A3.1528,3.1528,0,0,1,79,120.1777v-2.0512a8.3538,8.3538,0,0,1,2.209-.4419q1.3252-.1084,2.8716-.11,1.5462,0,3.0189.0552,1.47.0572,2.503.0552l.4418.4419q7.0686,0,13.9164-.6075,6.8478-.605,13.7687-.6069a7.909,7.909,0,0,1,2.2825.3311,8.1568,8.1568,0,0,1,1.9881.8833V119.34l-6.0373,3.0909a28.6852,28.6852,0,0,1,1.1776,3.6972q.4417,1.8216,1.0308,3.5874.587,1.878,1.2518,3.6426a12.8694,12.8694,0,0,0,1.8408,3.311,41.1149,41.1149,0,0,0,3.9025,5.0225,27.9239,27.9239,0,0,1,2.5771,3.0352,8.4345,8.4345,0,0,1,1.399,3.4218,39.377,39.377,0,0,1,.3681,6.4019,37.8483,37.8483,0,0,1,6.5533,6.1811,65.3221,65.3221,0,0,1,4.9333,6.8433q2.2089,3.534,4.2711,7.23a75.6479,75.6479,0,0,0,4.86,7.56q1.0279-2.3174,2.5772-5.5185,1.5462-3.2,3.5343-6.4571a51.4866,51.4866,0,0,1,4.2706-6.0156,17.8208,17.8208,0,0,1,4.7851-4.1943,38.305,38.305,0,0,1,3.608-9.0513q2.43-4.4128,5.3751-8.94,2.7966-4.4136,5.7433-8.7749a73.3763,73.3763,0,0,0,5.1542-8.8853,11.7418,11.7418,0,0,0-1.62-1.2143,9.3179,9.3179,0,0,1-1.0308-.6621,9.5823,9.5823,0,0,0-1.0309-.6626q-2.2089-1.6554-2.2089-2.649,0-.8818,1.2517-1.49a5.5657,5.5657,0,0,1,2.43-.6069,8.3814,8.3814,0,0,1,2.6507.4414,8.7754,8.7754,0,0,0,2.798.4419q7.213,0,14.4318-.1661,7.2131-.1655,14.5791-.1655a4.0812,4.0812,0,0,1-2.43,3.2564,12.4755,12.4755,0,0,1-5.0806,1.1591,7.2247,7.2247,0,0,0-2.7244,4.0284,19.976,19.976,0,0,0-.5154,4.4707,18.6715,18.6715,0,0,0-.1473,2.2627,11.98,11.98,0,0,1-.1472,1.9316,15.0834,15.0834,0,0,1-.6627,1.6553,3.2121,3.2121,0,0,1-1.2518,1.3247,15.1979,15.1979,0,0,1,.7364,3.3667c.0962,1.0674.1472,2.1157.1472,3.1455q-.1487,1.5468-.2209,3.146c-.051,1.0674-.0736,2.19-.0736,3.3662a2.3974,2.3974,0,0,0,.3682,1.104,11.6885,11.6885,0,0,1,.6626,1.4346,5.6056,5.6056,0,0,1,.4418.7729c.0962.2207.1954.48.2946.7725a5.9194,5.9194,0,0,1,.589,1.3247,62.5939,62.5939,0,0,1,1.1045,10.8169q.0721,5.41.0736,11.0376.1443,5.5211.5154,10.6514a42.9264,42.9264,0,0,0,2.2826,10.7622,2.3584,2.3584,0,0,0,1.0309.331,4.0559,4.0559,0,0,1,1.1781.3311,7.0711,7.0711,0,0,0,2.0617.5517c.6852.2207,1.2517.4243,1.6935.607A.897.897,0,0,1,218.0154,202.2339Z" transform="translate(-37.3062 -64.4912)"/>
  <rect class="cls-2" x="137.6437" y="91.6622" width="30.6796" height="21.1664" transform="translate(-61.0903 88.8547) rotate(-49.8802)"/>
  <rect class="cls-2" x="130.7829" y="79.7686" width="30.6796" height="21.1664" transform="translate(-54.4351 79.3787) rotate(-49.8802)"/>
  <g>
    <path d="M178.6934,96.3207a2.1878,2.1878,0,0,0-.64-1.2719l-2.6561-.1879a9.4743,9.4743,0,0,0-1.7962-1.8369,4.2979,4.2979,0,0,1-1.457-2.2141q-2.3933-3.2953-4.6624-5.8865Q165.21,82.3355,162.9,79.226a7.3833,7.3833,0,0,1-.8551-1.695,6.05,6.05,0,0,0-.9435-1.6963q-1.8808-2.448-3.7667-4.9918c-.511-.6894-1.046-1.3511-1.5658-2.03-.9521-.6709-1.8686-1.4353-2.848-2.1807a9.3244,9.3244,0,0,1-1.7229-1.6514,2.92,2.92,0,0,1-.5443-.3791,2.278,2.278,0,0,1-.8345-.0392.9988.9988,0,0,1-.1093-.0525,2.2,2.2,0,0,1-.4709-.0187,6.899,6.899,0,0,0-1.4017.7394,3.3006,3.3006,0,0,0-.8313,1.1946c-.2835,2.0639-.713,3.5372-2.2735,4.3054l-2.3786,3.409q-1.6266,2.3553-3.5088,4.8972-1.8844,2.5444-3.5087,4.8985-1.8846,2.637-3.6832,4.7565a40.671,40.671,0,0,1-4.28,4.2849,2.7083,2.7083,0,0,1-.8121,1.695,5.9594,5.9594,0,0,1-1.457.9421c-.5422.2523-1.07.5177-1.5812.8a2.4347,2.4347,0,0,0-1.113,1.2719l.0859.565a.9644.9644,0,0,0,.3416.4718l.2556.2824a1.2183,1.2183,0,0,0,.5159.1879,3.3179,3.3179,0,0,0,.4682.1406,1.3225,1.3225,0,0,1,.4728.2365,2.3788,2.3788,0,0,0,1.24-.33,1.9979,1.9979,0,0,1,.9865-.33,5.1057,5.1057,0,0,1,.984.0946,9.0708,9.0708,0,0,1,1.24.3759v-.7529q2.9988.1891,5.8638.5649c.6639.0873,1.3659.1089,2.0572.1487a5.1535,5.1535,0,0,0,.3912-.5419,3.3646,3.3646,0,0,0,.3445-.9961.1923.1923,0,0,1,.0309-.1472c.1656-1.2047-.4027-2.2474-.6184-3.469a2.8234,2.8234,0,0,1-.1052-1.3353,3.9128,3.9128,0,0,1-.05-1.1327c-.0094-.1527-.0385-.2662-.0385-.4378a9.2143,9.2143,0,0,1,1.285-3.4847q1.2826-2.4479,3.0812-5.2742t3.5971-5.4162q1.7986-2.59,2.8233-4.0024,1.5407,1.977,3.7691,4.9445,2.2213,2.9663,4.45,6.0272,2.2249,3.0628,4.0677,5.6986,1.8379,2.6372,2.6083,3.9564c.0046.0051-.0072.021-.0035.0268a9.814,9.814,0,0,1,1.7957,2.4486,3.26,3.26,0,0,0,.3758.5418c.08.07.1693.14.2434.211a.1148.1148,0,0,1,.0321.0033c0,.01,0,.0177,0,.0263a.39.39,0,0,1,.0581.0885,4.6877,4.6877,0,0,0,2.0262.9167c.4656.1169.936.1945,1.4068.27a23.2331,23.2331,0,0,1,2.4568.0348,8.1339,8.1339,0,0,1,2.74.7069,9.1571,9.1571,0,0,0,2.5677.1879,8.0672,8.0672,0,0,0,1.8845-.4244,1.7994,1.7994,0,0,0,1.1967-1.3652A1.5042,1.5042,0,0,1,178.6934,96.3207Z" transform="translate(-37.3062 -64.4912)"/>
    <path d="M177.83,96.6964l-1.101-.7461q-2.5376.3742-4.9948.6992-2.456.3276-4.912.6057l-.508-.373c-.4608.0443-.91.057-1.359.0663.0031.0094.0136.0185.0151.0279.0253.1648-.1373.3124-.2983.43-.0072.0143-.0089.025-.0175.04-.3713.6593-1.3314.9295-1.7136,1.6893a5.8728,5.8728,0,0,0-.3618,2.47,5.1463,5.1463,0,0,1-1.1254,2.7549c-.0593.163-.1046.3175-.1768.4885a28.0371,28.0371,0,0,1-2.5848,4.6116q-1.5239,2.4234-3.3006,4.7974-1.7792,2.3766-3.05,4.24-.5919-.8384-1.4389-2.2824t-1.8618-1.444q-.5955,0-1.9067-1.678t-2.7928-3.8655q-1.4849-2.19-2.795-4.3789-1.3149-2.1894-1.8217-3.2143l.0079-.03a.9693.9693,0,0,1-.0743-.4253,3.4716,3.4716,0,0,1-.3053-.8121,5.1036,5.1036,0,0,0-.9743-2.04,1.6986,1.6986,0,0,1-.4494-.5461c-.0079-.0055-.0206-.0071-.0263-.0144a.2274.2274,0,0,1-.0382-.2992c-.1136.0221-.2251.042-.3421.0676A13.8775,13.8775,0,0,1,134.5594,98h-3.3881a12.72,12.72,0,0,0-2.92-.698,23.1688,23.1688,0,0,0-3.0054-.2339c-.2835,0-.5647.2027-.8482.6057a4.832,4.832,0,0,0-.593,1.0722,1.6807,1.6807,0,0,0,.5079,1.3037,4.005,4.005,0,0,0,1.1861.7461q.677.2787,1.3562.5121a2.0387,2.0387,0,0,1,1.016.698,17.3719,17.3719,0,0,1,2.7927,2.2368,6.28,6.28,0,0,1,1.101,1.5831,4.3591,4.3591,0,0,1,.4253.7929c.1111.2794.2245.5745.3379.8851a18.1678,18.1678,0,0,0,1.609,2.4215q3.1329,4.1021,6.2658,8.1053,3.1257,3.9988,6.3361,7.9941c.0249.0075.067.0117.0692.0234.0154.0792.0409.1821.0637.2788.6586.5609,1.2445,1.2834,2.0244,2.0078a2.0538,2.0538,0,0,0,.2147.1508c.1411.0039.27.0075.3942.0112.0931-.1807.1786-.3584.2918-.5477,1.2826-2.1428,3.225-3.439,4.597-5.4171.1174-.2391.2647-.4482.3674-.7033a.257.257,0,0,1,.0859-.0188c.1015-.1817.2359-.3237.3259-.5192.0337-.0732.1548-.0968.3068-.1024.4819-.6236,1.0239-1.3581,1.6887-2.3193q1.3538-1.9555,3.05-4.1917,1.6905-2.2363,3.5134-4.6116,1.818-2.3764,3.5984-4.3321a38.827,38.827,0,0,1,3.3456-3.3078,6.0746,6.0746,0,0,1,2.6674-1.5376c.1678-.0611.508-.2171,1.016-.4654a15.96,15.96,0,0,0,1.5665-.8851q.8045-.5107,1.4388-.9787c.423-.3094.6356-.5264.6356-.6525v-.6512Z" transform="translate(-37.3062 -64.4912)"/>
  </g>
</svg>
