<svg id="Laag_1" data-name="Laag 1" xmlns="http://www.w3.org/2000/svg" viewBox="0 0 217.6548 198.3028">
  <defs>
    <style>
      .cls-1, .cls-2 {
        stroke: #000;
        stroke-miterlimit: 10;
      }

      .cls-2, .cls-3 {
        fill: #f6f1df;
      }

      .cls-2 {
        stroke-width: 3px;
      }
    </style>
  </defs>
  <title>logo_slim</title>
  <path d="M234.6777,87.4971,235.94,88.55l.6074-.1094a15.0569,15.0569,0,0,1,2.8418,2.294,8.0517,8.0517,0,0,0,2.9355,2.0107l4.5264,1.5244a2.7357,2.7357,0,0,1,1.5185-.2754,20.7062,20.7062,0,0,1,2.2588.211q1.2246.1758,2.34.3935a12.7377,12.7377,0,0,0,1.6748.2491l.3594,2.3232a2.2545,2.2545,0,0,1-1.211,1.4785,8.8879,8.8879,0,0,1-1.8945.541q-1.0635.1949-2.083.3994a3.2431,3.2431,0,0,0-1.78,1.0508,16.7842,16.7842,0,0,0-1.7725,2.8623q-.9653,1.8795-1.8486,3.9375-.8834,2.0611-1.6406,4.1651-.7544,2.1034-1.1836,3.375a1.5809,1.5809,0,0,0-.4326.7187c-.1114.3311-.1983.5889-.2608.7764q-.7617,2.26-1.498,4.4482a10.0964,10.0964,0,0,1-2.3428,3.85l-.0019,2.8291q-1.692,4.4634-3.5655,9.1758-1.8735,4.7169-3.3,8.9522a76.2819,76.2819,0,0,0-2.2881,8.3486,75.5838,75.5838,0,0,1-2.288,8.3486,24.3894,24.3894,0,0,1-2.22,4.7549,25.1448,25.1448,0,0,0-2.2666,4.8965q-1.9027,5.6514-3.624,11.751a112.2472,112.2472,0,0,0-2.6758,11.7568,8.8019,8.8019,0,0,0-.0029,4.2432,8.0927,8.0927,0,0,0,1.28,2.5547q.7676.9652,1.3935,1.6484a1.3391,1.3391,0,0,1,.3887,1.3887,2.0211,2.0211,0,0,1-.2764.5351,2.1489,2.1489,0,0,0-.2754.5362c-.3164,0-.6543.0156-1.0156.0517a2.3028,2.3028,0,0,0-1.0244.3614,8.0079,8.0079,0,0,0-1.1055-1.2364,4.9081,4.9081,0,0,0-1.1142-.9258q-.4263-.1436-.94-.3164a1.7807,1.7807,0,0,0-1.0351-.0341l-.2266-1.02a26.2971,26.2971,0,0,0-7.5215-1.6679,30.0777,30.0777,0,0,1-7.5674-1.5264,6.9966,6.9966,0,0,0,.2471-1.0166,8.1016,8.1016,0,0,1,.2949-1.1592c.127-.375.2383-.706.333-.9883a.9336.9336,0,0,1,.5791-.5908,7.3122,7.3122,0,0,0,5.0039-2.01q1.8048-1.8265,3.6114-7.1962a6.5451,6.5451,0,0,0,.2714-1.087,7.6316,7.6316,0,0,1,.3184-1.23l1.0254.3448.4941-.6192.1446-4.6679a17.3723,17.3723,0,0,1,1.2881-1.8467,6.1367,6.1367,0,0,0,1.03-1.9326,9.7386,9.7386,0,0,0,.5108-3.209,11.172,11.172,0,0,1,.6523-3.6319q.8071-2.3979,1.8545-4.8,1.0445-2.3964,1.9014-4.9414,1.0927-3.246,2.04-6.624.9463-3.372,2.041-6.624,1.3785-4.0942,3.1-8.0742t3.1846-8.0469l-.1309-2.7178a20.1139,20.1139,0,0,1,2.4424-4.9941l4.6983-13.67q.5229-1.5513,1.2695-4.0518a45.48,45.48,0,0,0,1.19-4.9453,15.8523,15.8523,0,0,0,.2452-4.3994q-.1994-1.9527-1.48-2.3848a2.2917,2.2917,0,0,0-.9873-.1748l-.2364-.709c-.2031.0381-.3125-.1055-.332-.4258a4.6546,4.6546,0,0,1,.0771-1.0752c.07-.3935.1319-.7666.1856-1.1162a2.3588,2.3588,0,0,0,.0049-.8623A7.0659,7.0659,0,0,1,234.6777,87.4971Z" transform="translate(-37.3472 -64.4912)"/>
  <path d="M237.88,91.68l.4814.8076.3653-.05a6.7521,6.7521,0,0,1,1.1,1.7627,3.3929,3.3929,0,0,0,1.2148,1.5654l2.2149,1.293a1.4576,1.4576,0,0,1,.914-.127,8.6239,8.6239,0,0,1,1.2246.253q.65.183,1.2305.3886a5.2272,5.2272,0,0,0,.8877.2539l-.3027,1.67a2.1617,2.1617,0,0,1-1.003.998,5.12,5.12,0,0,1-1.1816.3q-.6415.0909-1.26.1895a2.4177,2.4177,0,0,0-1.2285.6679,17.3208,17.3208,0,0,0-1.6191,1.9571q-.9507,1.2935-1.8955,2.7207t-1.8272,2.8926q-.8818,1.4619-1.3984,2.3486a1.6483,1.6483,0,0,0-.4.4932c-.1348.23-.2393.41-.3154.54q-.92,1.5777-1.81,3.1006a10.48,10.48,0,0,1-2.1533,2.6347l-.6153,2.0157q-1.9233,3.1039-3.999,6.375-2.0785,3.2724-3.8008,6.2246-1.6669,2.8565-3.1015,5.8437t-3.1006,5.8428a26.4437,26.4437,0,0,1-2.2813,3.2861,27.0165,27.0165,0,0,0-2.3388,3.3848q-2.2969,3.9375-4.5918,8.2051t-4.0586,8.2519a8.7583,8.7583,0,0,0-.9239,3.0225,5.6032,5.6032,0,0,0,.1661,1.8769c.1484.4825.289.8946.4257,1.2383a1.1036,1.1036,0,0,1-.0839,1.0069,2.1372,2.1372,0,0,1-.2715.37,2.1433,2.1433,0,0,0-.2715.3681,4.5233,4.5233,0,0,0-.582-.01,1.4313,1.4313,0,0,0-.6553.2109,4.2584,4.2584,0,0,0-.3526-.9316,2.2164,2.2164,0,0,0-.4257-.71q-.21-.1215-.46-.2676a.7645.7645,0,0,0-.5742-.0722l.0937-.7364a10.145,10.145,0,0,0-3.8681-1.5312,11.6661,11.6661,0,0,1-3.9258-1.4326,7.2674,7.2674,0,0,0,.36-.7129,8.86,8.86,0,0,1,.418-.8125c.1533-.2608.2871-.4912.4023-.6885a.8524.8524,0,0,1,.4542-.3945,4.7493,4.7493,0,0,0,3.25-1.2031,21.1383,21.1383,0,0,0,3.5957-4.962,7.2083,7.2083,0,0,0,.3886-.7617,8.2841,8.2841,0,0,1,.4463-.8613l.501.293.4131-.419,1.0967-3.3193q.5829-.7119,1.124-1.2549a6.4806,6.4806,0,0,0,.999-1.33,10.2658,10.2658,0,0,0,.9844-2.2627,11.9622,11.9622,0,0,1,1.1562-2.5576q.9756-1.6728,2.086-3.334,1.1088-1.66,2.1435-3.4336,1.32-2.2617,2.5869-4.625,1.2642-2.36,2.586-4.625,1.6654-2.855,3.498-5.6113t3.54-5.5869l.5166-1.94a21.4757,21.4757,0,0,1,2.4589-3.4463l5.6114-9.5235q.6327-1.081,1.5947-2.8291.9624-1.7446,1.7432-3.4677a16.2252,16.2252,0,0,0,1.0937-3.1231q.3135-1.3989-.3135-1.7656a.91.91,0,0,0-.5175-.169l.0214-.5156c-.122.0166-.1533-.0889-.0937-.3193a4.8709,4.8709,0,0,1,.2764-.7617c.125-.2774.24-.54.3476-.7881a2.3863,2.3863,0,0,0,.19-.6143A5.3809,5.3809,0,0,1,237.88,91.68Z" transform="translate(-37.3472 -64.4912)"/>
  <g>
    <path class="cls-1" d="M79.7651,252.3193a.9571.9571,0,0,1-.9453.9444,7.6026,7.6026,0,0,1-1.6621-.1924,7.4733,7.4733,0,0,0-1.6279-.1924h-.84q-.4548,0-.9448.0352t-.9624.0869a3.1392,3.1392,0,0,0-.8227.1933,2.0639,2.0639,0,0,0-.3848.1221,1.9081,1.9081,0,0,0-.21.1221.6868.6868,0,0,1-.21.0527,4.1043,4.1043,0,0,1-.4546.0176,1.1576,1.1576,0,0,1-.1929-.2627.6162.6162,0,0,1-.0874-.2969,1.14,1.14,0,0,1,.4551-.77,1.506,1.506,0,0,1,.8052-.4551l.2446.1407a.7979.7979,0,0,0,.665-.3155,2.1546,2.1546,0,0,0,.3677-.8222,7.5389,7.5389,0,0,0,.1748-1.1729c.0352-.4424.064-.91.0879-1.3994v-1.4707a12.3648,12.3648,0,0,1,.07-1.3643q.07-.6313.1573-1.0859a.9632.9632,0,0,1,.3325-.63,2.4008,2.4008,0,0,1-.49-1.0674q-.1047-.5771-.1748-1.207-.071-.5948-.1225-1.208a3.3645,3.3645,0,0,0-.2979-1.1377q.07-.8041.07-1.5742v-1.54l-.0351-2.415-.28-.3154q-2.1357,3.6753-4.0254,7.2627a57.763,57.763,0,0,0-3.29,7.5078q-.175.4907-.4375,1.4346t-.6123,1.96a17.445,17.445,0,0,1-.7349,1.82,2.9,2.9,0,0,1-.77,1.085,1.47,1.47,0,0,1-.56-.6475,5.6378,5.6378,0,0,1-.35-.9453,10.1275,10.1275,0,0,1-.2275-1.0322c-.0586-.3506-.1-.6651-.1226-.9453h-.3847a1.7765,1.7765,0,0,1-.6128-.77c-.105-.28-.2041-.5478-.2974-.8056a4.9856,4.9856,0,0,0-.2622-.7344,1.0417,1.0417,0,0,0-.5425-.5254q-.8056-1.68-1.47-3.4473t-1.4-3.5527q-.7353-1.7841-1.5928-3.5a21.0689,21.0689,0,0,0-2.0825-3.3252q-.2094,2.73-.5947,5.3731a36.4029,36.4029,0,0,0-.3853,5.2675,2.915,2.915,0,0,0,.105.77q.1055.3852.21.7353a6.11,6.11,0,0,1,.2275.7871,3.7237,3.7237,0,0,1,.0879.7881,1.89,1.89,0,0,1-.1577.752,5.7953,5.7953,0,0,0-.2627.7529.6087.6087,0,0,0-.07.332v.3682a1.6587,1.6587,0,0,0,.21.8047,2.7338,2.7338,0,0,0,.5249.6826,2.484,2.484,0,0,0,.7178.4727,1.9715,1.9715,0,0,0,.7876.1748,1.95,1.95,0,0,1,.5249.0527,1.9048,1.9048,0,0,1,.3149.1221.5332.5332,0,0,0,.14.1054.5536.5536,0,0,1,.14.1045.685.685,0,0,0,.14.0528.623.623,0,0,1,.1748.0869,1.2462,1.2462,0,0,1-.2622.5078.5979.5979,0,0,1-.4727.2275,18.8376,18.8376,0,0,1-2.9922-.2451,19.0654,19.0654,0,0,0-3.0278-.2451,3.21,3.21,0,0,0-1.0147.1748c-.1875.0479-.3564.0937-.5078.1406a1.6257,1.6257,0,0,1-.4726.07,1.2009,1.2009,0,0,1-.35-.0527q-.1758-.0528-.35-.0879l-.105-.7695a3.8914,3.8914,0,0,1,.63-.3154q.42-.1744.875-.42a8.7746,8.7746,0,0,0,.8051-.455.7888.7888,0,0,0,.42-.5245,1.3924,1.3924,0,0,0,.5249-.7529,4.0182,4.0182,0,0,0,.1577-.9971,7.9529,7.9529,0,0,0-.0352-1.0507c-.0351-.35-.0527-.6651-.0527-.9444a6.2868,6.2868,0,0,1,.1577-1.4179,3.6288,3.6288,0,0,1,.6123-1.3125q-.175-.28-.35-.5772a1.3154,1.3154,0,0,1-.1753-.6826,8.5674,8.5674,0,0,1,.1226-1.4522q.1223-.7177.2275-1.4179a11.54,11.54,0,0,0,.1924-1.4346,5.6909,5.6909,0,0,0-.0874-1.4707q.1047-.5244.2451-1.0674t.28-1.1377q.14-.5948.2275-1.1543a7.0552,7.0552,0,0,0,.0874-1.0849q0-.4557-.0874-1.4356a13.295,13.295,0,0,0-.3325-1.9775,6.9068,6.9068,0,0,0-.6826-1.7676,1.2744,1.2744,0,0,0-1.1021-.77,2.245,2.245,0,0,0-.5078.0527,2.3107,2.3107,0,0,1-.5073.0518,1.0723,1.0723,0,0,1-.5078-.14.8228.8228,0,0,1-.3672-.35v-.6309a1.58,1.58,0,0,1,.5249-.14,6.41,6.41,0,0,1,.6826-.0352q.3677,0,.7173.0176t.5952.0176l.105.14a28.02,28.02,0,0,0,3.3076-.1923,27.9013,27.9013,0,0,1,3.2725-.1924,1.4443,1.4443,0,0,1,.5425.1054,1.734,1.734,0,0,1,.4721.2793v.3858l-1.435.98a11.3652,11.3652,0,0,1,.28,1.1728q.1049.5772.2452,1.1377.139.5948.2973,1.1543a4.6268,4.6268,0,0,0,.4375,1.0508,13.33,13.33,0,0,0,.9273,1.5918,8.7925,8.7925,0,0,1,.6128.9629,3.2222,3.2222,0,0,1,.3325,1.0849,16.5844,16.5844,0,0,1,.0874,2.03,10.7629,10.7629,0,0,1,1.5576,1.96,21.5608,21.5608,0,0,1,1.1724,2.17q.5251,1.1206,1.0151,2.292a26.0274,26.0274,0,0,0,1.1548,2.3975q.2447-.7339.6128-1.75.3669-1.0137.84-2.0469a17.15,17.15,0,0,1,1.0152-1.9082,4.9,4.9,0,0,1,1.1372-1.33,14.7517,14.7517,0,0,1,.8574-2.8691q.5778-1.4,1.2778-2.835.6644-1.4,1.3648-2.7832a25.9352,25.9352,0,0,0,1.2251-2.8174,3.1221,3.1221,0,0,0-.3848-.3848,2.2224,2.2224,0,0,1-.2451-.21,2.3816,2.3816,0,0,0-.2451-.21q-.5251-.5259-.5249-.84a.5573.5573,0,0,1,.2973-.4727,1.0672,1.0672,0,0,1,.5777-.1924,1.5473,1.5473,0,0,1,.63.14,1.6133,1.6133,0,0,0,.6651.14q1.7145,0,3.43-.0517,1.7138-.0528,3.4648-.0528a1.3161,1.3161,0,0,1-.5776,1.0323,2.37,2.37,0,0,1-1.2076.3681,2.437,2.437,0,0,0-.6474,1.2774,8.38,8.38,0,0,0-.1226,1.417q-.0351.3852-.0346.7177a5.038,5.038,0,0,1-.0352.6124q-.07.2813-.1577.5253a.9556.9556,0,0,1-.2974.42,6.2172,6.2172,0,0,1,.1753,1.0673q.0345.5084.0347.9971-.0353.4908-.0523.9981c-.0122.3379-.0175.6943-.0175,1.0673a.9419.9419,0,0,0,.0874.35,4.4224,4.4224,0,0,1,.1577.455,1.9906,1.9906,0,0,1,.105.2452c.0229.07.0463.1523.07.2451a2.2447,2.2447,0,0,1,.14.42,26.1653,26.1653,0,0,1,.2622,3.43q.0176,1.7152.0176,3.5.0345,1.7505.1226,3.3779a17.6571,17.6571,0,0,0,.5424,3.4121.47.47,0,0,0,.2452.1055.7971.7971,0,0,1,.28.1045,1.376,1.376,0,0,0,.49.1758,4.2662,4.2662,0,0,1,.4023.1923A.2829.2829,0,0,1,79.7651,252.3193Z" transform="translate(-37.3472 -64.4912)"/>
    <path class="cls-1" d="M106.47,229.6738a.7691.7691,0,0,1-.1054.1748.2636.2636,0,0,0-.0342.1055.2787.2787,0,0,1-.0352.1045,3.9336,3.9336,0,0,1-1.0849.2275q-.63.0528-1.05.0528t-.6309.91a19.5825,19.5825,0,0,0-.35,2.1q-.1758,1.2261-.2276,2.3623-.0526,1.1382-.0878,1.5225-.07,1.2261-.0518,2.415a14.8878,14.8878,0,0,1-.1582,2.3809,9.87,9.87,0,0,1-.2969,1.47,6.9287,6.9287,0,0,1-.49,1.2422,6.5755,6.5755,0,0,1-.7354,1.12,9.297,9.297,0,0,1-1.0673,1.1026.4044.4044,0,0,0-.0694.28.7739.7739,0,0,1-.07.35,3.0951,3.0951,0,0,1-1.2422,1.0146,12.9425,12.9425,0,0,1-2.0654.8584,21.9086,21.9086,0,0,1-2.2227.5947,8.8243,8.8243,0,0,1-1.7148.2276,3.58,3.58,0,0,1-.875-.1055,3.6348,3.6348,0,0,0-.875-.1045.8359.8359,0,0,0-.4024.1045.8978.8978,0,0,1-.4375.1055,4.3579,4.3579,0,0,1-2.1171-.543,7.9837,7.9837,0,0,1-1.8379-1.3818,9.6849,9.6849,0,0,1-1.4346-1.82,10.3278,10.3278,0,0,1-.91-1.8554,4.1275,4.1275,0,0,1-.2627-1.627q.0177-.9272.0176-1.7324a1.7775,1.7775,0,0,0-.2451-.91,1.7769,1.7769,0,0,1-.2451-.91,6.485,6.485,0,0,1,.3154-1.9951,6.4725,6.4725,0,0,0,.3145-1.9951q0-.2446-.4893-.4551a6.8461,6.8461,0,0,1,0-1.3994q.0688-.7.0693-1.4a3.4848,3.4848,0,0,0-.1044-.84,3.431,3.431,0,0,1-.1055-.84,4.2182,4.2182,0,0,0-1.19-.3672,3.6182,3.6182,0,0,1-1.2251-.4375,1.9842,1.9842,0,0,1,.35-.543q.21-.2269.3848-.4023a13.427,13.427,0,0,1,1.5571.1572,12.8751,12.8751,0,0,0,1.4883.1572l.3145-.1045q.3149.07.63.14a2.8963,2.8963,0,0,0,.6308.07,8.3129,8.3129,0,0,0,1.8369-.21,8.3221,8.3221,0,0,1,1.8379-.21,1.1483,1.1483,0,0,1,.4727.1221.4717.4717,0,0,1,.2617.4726c-.0234.07-.0469.1348-.0693.1924s-.0469.123-.07.1924a4.4087,4.4087,0,0,1-.5947.1758c-.21.0468-.4092.0927-.5947.14q-.5962.1407-.6826.35a3.2783,3.2783,0,0,0-.1582.7354q-.07.4906-.1748,1.0674a1.3306,1.3306,0,0,1-.56.8925,1.142,1.142,0,0,0,.2793.5078.7683.7683,0,0,1,.21.542.8919.8919,0,0,1-.1045.4375,1.2663,1.2663,0,0,0-.14.4375,4.5877,4.5877,0,0,0-.0176.7354c.0108.3037.0108.6123,0,.9277a6.6723,6.6723,0,0,1-.0879.875,1.1091,1.1091,0,0,1-.28.6123v1.82a8.4265,8.4265,0,0,0,.1582,1.6621q.1568.7881.3672,1.5225t.455,1.4873q.2447.753.4551,1.5928a4.1228,4.1228,0,0,0,.8047.7353,7.308,7.308,0,0,0,1.0674.63,7.9811,7.9811,0,0,0,1.1553.4551,3.8169,3.8169,0,0,0,1.1025.1748,6.79,6.79,0,0,0,2.0645-.2627,3.7035,3.7035,0,0,0,1.3652-.77,5.363,5.363,0,0,0,.998-1.2422q.4367-.7353.962-1.6445a14.5363,14.5363,0,0,0,.1054-2.66q-.07-1.33-.07-2.66a2.0861,2.0861,0,0,1,.1748-.875,4.4151,4.4151,0,0,0,.28-.84,5.9489,5.9489,0,0,0-.2276-.98,3.3121,3.3121,0,0,1-.1572-1.0147,6.3572,6.3572,0,0,1,.1045-1.085,1.7921,1.7921,0,0,1,.49-.98,5.1707,5.1707,0,0,0-.3144-.542,4.7737,4.7737,0,0,1-.3154-.543,1.7468,1.7468,0,0,1-.1221-.6123c-.0127-.2451-.03-.4834-.0527-.7178a1.6536,1.6536,0,0,0-.1748-.6123.5767.5767,0,0,0-.5606-.2627l-.2451.1407-.0693-.0352c-.2344-.07-.462-.1455-.6827-.2275a2.3717,2.3717,0,0,1-.6132-.3321q.1055-.2109.2627-.4726a.4422.4422,0,0,1,.3681-.2627,20.1488,20.1488,0,0,1,3.1319.2451,20.1593,20.1593,0,0,0,3.1328.2451,3.8636,3.8636,0,0,0,1.19-.1924,3.8279,3.8279,0,0,1,1.1894-.1933,2.254,2.254,0,0,1,.7706.2275Q106.4346,229.3946,106.47,229.6738Z" transform="translate(-37.3472 -64.4912)"/>
    <path class="cls-1" d="M130.1816,229.7617q-.4731.3325-.7529.5069l-.35-.1045-.1055-.21.21-.1055h.0352l.07.1407v-.0352l.0351.0352v.0341q-.0351.1056-.1758.0352v.0352c.0938,0,.128.0585.1055.1748q-.42,0-.6123.7a14.1248,14.1248,0,0,0-.333,1.61c-.0469.3272-.0869.6475-.1221.9619s-.0761.6133-.123.8926c-.0469.2568-.0869.49-.1221.7a2.4552,2.4552,0,0,1-.123.49,1.3077,1.3077,0,0,1,.0879.3672c.0117.1289.0175.251.0175.3672a5.6886,5.6886,0,0,1-.0351.6309,5.657,5.657,0,0,0-.0352.63,2.19,2.19,0,0,0,.1231.7344,2.2271,2.2271,0,0,1,.122.7354,9.1734,9.1734,0,0,1-.0693,1.12c-.0479.373-.082.7471-.1055,1.12q-.1405,2.4141-.122,4.7422.016,2.3275.0166,4.7422a.7334.7334,0,0,1-.1045.3857.7308.7308,0,0,0-.1055.3848l-.21.21a.4241.4241,0,0,0-.1572.0352.5119.5119,0,0,1-.1924.0352c-.14,0-.3154-.1348-.5254-.4034a10.0669,10.0669,0,0,1-.6474-.9443q-.3325-.542-.6123-1.0674a7.4651,7.4651,0,0,1-.3848-.8056l-.2451-.35a.5737.5737,0,0,0,.0351-.1748v-.07q-.3852-.4891-.665-.7871c-.1875-.1982-.374-.4033-.5605-.6133-.1631-.1865-.3262-.39-.4893-.6123a5.5767,5.5767,0,0,1-.5254-.9277l-.0351.07a10.0742,10.0742,0,0,1-1.47-1.7676q-.63-.9624-1.26-1.9775c-.07,0-.17-.0752-.2979-.2275s-.2158-.2618-.2627-.3321q-.7338-.9449-1.417-1.9248t-1.3828-1.9951l.0352-.1406a.3611.3611,0,0,0-.3155-.2793,2.9489,2.9489,0,0,0-.42-.63,3.4773,3.4773,0,0,1-.42-.5957.7384.7384,0,0,1-.0869-.35c-.0127-.1631-.03-.2451-.0528-.2451q-.4906-.4893-.8046-.875a7.9747,7.9747,0,0,1-.5606-.77c-.14-.2109-.28-.4209-.42-.6308a3.9353,3.9353,0,0,0-.49-.5947,6.8916,6.8916,0,0,0-.0694.98v.98a10.3357,10.3357,0,0,1-.0527,1.0674,1.8652,1.8652,0,0,1-.2276.7881,3.1544,3.1544,0,0,0,.1749.3672,2.4978,2.4978,0,0,1,.1748.4023q0,1.0152-.1045,2.0654t-.1748,2.0645l-.1758.3506c.0469.1172.0937.2392.1406.3672a1.1894,1.1894,0,0,1,.0693.4023,8.6351,8.6351,0,0,1-.0869,1.05,8.1662,8.1662,0,0,1-.2275,1.1553l.21-.0352q0,.3853-.0527,1.2432a12.2346,12.2346,0,0,0,.0176,1.7324q.0351.3853.0879.7344a2.69,2.69,0,0,0,.1572.6123.827.827,0,0,0,.28.3857.5314.5314,0,0,0,.4551.0518l.21.2109h.0694a3.1917,3.1917,0,0,0,.4726.087.8792.8792,0,0,1,.3506.1054,1.36,1.36,0,0,1,.2969.2276,2.4679,2.4679,0,0,1,.3154.42q-.1758.1758-.42.4726a.69.69,0,0,1-.5254.2969,4.1759,4.1759,0,0,1-1.085-.14,8.23,8.23,0,0,0-1.0849-.21.6841.6841,0,0,1-.333.0527.869.869,0,0,1-.2969-.0879q-.63.07-1.2774.1221a8.4561,8.4561,0,0,0-1.2431.1924l-.21.1406a1.59,1.59,0,0,1-.6123-.3506.7863.7863,0,0,1-.332-.5947.4993.4993,0,0,1,.3144-.42,3.1691,3.1691,0,0,1,.7-.28,6.8911,6.8911,0,0,1,.7178-.1572c.2217-.0352.3438-.0752.3672-.1221a4.8211,4.8211,0,0,0,.28-1.2949,2.9313,2.9313,0,0,1-.07-.5254,6.52,6.52,0,0,1,.1748-1.4873,6.5311,6.5311,0,0,0,.1748-1.4873,1.1907,1.1907,0,0,0-.1045-.4033,3.1339,3.1339,0,0,0-.21-.4375v-10.08l.2451-.42a3.782,3.782,0,0,0-.2627-1.3994,1.3673,1.3673,0,0,0-1.0674-.84,1.5994,1.5994,0,0,0-.42-.0351c-.0937,0-.2226-.0059-.3847-.0176a3.0476,3.0476,0,0,1-.4727-.07,1.1558,1.1558,0,0,1-.3857-.1573.3546.3546,0,0,1-.1573-.3154.9663.9663,0,0,1,.2979-.6123.8632.8632,0,0,1,.6474-.332,18.5845,18.5845,0,0,1,1.8545.1221q1.1557.123,1.96.1572a7.928,7.928,0,0,0,1.3828-.0518c.4785-.0586.9395-.11,1.3828-.1582q.2447,0,.7344.5781a13.9062,13.9062,0,0,1,.998,1.3477q.5069.769.9454,1.54a8.7178,8.7178,0,0,1,.5771,1.1543l.0352-.0351a.3049.3049,0,0,0,.0527-.0694.9715.9715,0,0,1,.1924-.1748,3.8679,3.8679,0,0,0,.35.8575,7.153,7.153,0,0,0,.4551.6992c.1631.2226.32.4375.4726.6474a5.3929,5.3929,0,0,1,.4375.7354.452.452,0,0,0,.21.3672q.2094.1581.4375.3506a2.3977,2.3977,0,0,1,.42.4726,1.2755,1.2755,0,0,1,.1924.7344l.35.2451c.0937.1406.1807.2744.2627.4024a4.1593,4.1593,0,0,0,.2627.3681l-.1045-.0351q.1392,0,.6641.6474t1.1552,1.4873q.63.8394,1.208,1.61t.752,1.0146a1.6532,1.6532,0,0,0,.07-.6826q-.0351-.3676-.0351-.6826a1.539,1.539,0,0,1,.07-.4893,3.6413,3.6413,0,0,1,.21-.49,4.2527,4.2527,0,0,0-.1924-1.0156,3.2828,3.2828,0,0,1-.1582-1.0147q0-1.5747.0176-3.2373a10.1838,10.1838,0,0,1,.543-3.2031l-.21-.21-.07-.21a2.41,2.41,0,0,0-.1924-1.19,1.891,1.891,0,0,0-.6474-.7353,2.6137,2.6137,0,0,0-.9629-.3848,8.61,8.61,0,0,0-1.1367-.14,3.5032,3.5032,0,0,0-.2276-.333.5788.5788,0,0,1-.123-.3672.613.613,0,0,1,.2275-.4551.6955.6955,0,0,1,.4727-.21h.21c.07,0,.1748.0059.3155.0176s.32.0234.542.0352.5195.0175.8925.0175l-.84.0342a.9038.9038,0,0,0,.1221.0528.9567.9567,0,0,1,.123.0527h1.2949q.3839.0351.7344.0351a1.5169,1.5169,0,0,1,.5254.0694q.5948-.1392,1.2773-.3145a5.18,5.18,0,0,1,1.2774-.1748,2.7183,2.7183,0,0,1,1.0156.21v.5244A2.7844,2.7844,0,0,1,130.1816,229.7617Z" transform="translate(-37.3472 -64.4912)"/>
    <path class="cls-1" d="M151.9688,226.6992q-.315.5948-.542,1.085a5.8848,5.8848,0,0,0-.3506.9443,7.8019,7.8019,0,0,0-.1924.9629,8.6457,8.6457,0,0,0-.07,1.1729,4.3034,4.3034,0,0,0,.2627,1.4873,4.303,4.303,0,0,1,.2627,1.4873.4976.4976,0,0,1-.1924.4023q-.1934.1583-.3672.2979h-.3857a.6434.6434,0,0,1-.4024-.21q-.2271-.2109-.0176-.3848a1.6,1.6,0,0,1-.2451-.49,4.1,4.1,0,0,0-.1748-.49v-.1748a1.3018,1.3018,0,0,0-.49-.9453,5.6482,5.6482,0,0,0-1.1719-.8223,7.891,7.891,0,0,0-1.418-.5947,4.2756,4.2756,0,0,0-1.2246-.2276,5.4423,5.4423,0,0,0-.7529.0518,5.3022,5.3022,0,0,1-.752.0527,1.7442,1.7442,0,0,1-.5781-.1045,1.8185,1.8185,0,0,0-.6123-.1054,3.2232,3.2232,0,0,0-.7695.4375q-.6651.4379-1.4707,1.0146-.8043.5786-1.54,1.1025-.7338.5259-.98.7354v.3848a15.1664,15.1664,0,0,0-1.47,3.1328,10.1642,10.1642,0,0,0-.5957,3.3076,4.53,4.53,0,0,0,.1231.9453q.1215.5595.3144,1.1719t.4033,1.19a6.95,6.95,0,0,0,.42.9619l-.28.3154.0351.0352.2793-.07q.1758.1758.6309.6123t.9619.9453q.5069.5084.9277.9971a2.9843,2.9843,0,0,1,.5254.77h.14a1.5932,1.5932,0,0,0,.3848-.0527,2.93,2.93,0,0,0,.3847-.1221l.2451.21q.5948.07,1.19.1924t1.1894.2969l.1758-.1748c.0928-.0225.1748-.0459.2441-.0693a.7759.7759,0,0,1,.2452-.0352.9763.9763,0,0,1,.4033.0869.9539.9539,0,0,0,.4023.0879c.0225-.07.1045-.1055.2451-.1055a.519.519,0,0,0,.2793-.0869.6462.6462,0,0,1,.3506-.0879,1.78,1.78,0,0,0,.752-.3672q.542-.3677,1.1377-.8574t1.0674-.9629a1.7363,1.7363,0,0,0,.5078-.6826,3.605,3.605,0,0,0,.07-.6992,1.0665,1.0665,0,0,1,.2441-.665l-.0342-.0352a1.0757,1.0757,0,0,1,.4375-.875,1.7322,1.7322,0,0,1,.9971-.3848,1.1555,1.1555,0,0,1,.1924.5069c.0117.1523.0176.2861.0176.4023a6.2233,6.2233,0,0,1-.3672,2.1358,6.2177,6.2177,0,0,0-.3682,2.1347,2.6326,2.6326,0,0,0,.1406.84,7.0161,7.0161,0,0,0,.3321.8222,7.3714,7.3714,0,0,1,.333.8223,2.6617,2.6617,0,0,1,.14.8408.4927.4927,0,0,1-.07.2793,2.3694,2.3694,0,0,0-.14.2451.2893.2893,0,0,1-.0176.0879.5267.5267,0,0,0-.0176.1573h-1.0849a2.6559,2.6559,0,0,1-.3672-.752c-.1055-.3154-.1924-.5781-.2627-.7881-.0938-.28-.1866-.5244-.28-.7344s-.21-.3154-.35-.3154a6.1177,6.1177,0,0,0-.7871.07.8525.8525,0,0,0-.6826.3848,7.8686,7.8686,0,0,0-2.1875.2275q-1.0327.2622-2.1534.4375-.3852.07-.7343.1045a7.3481,7.3481,0,0,1-.7354.0352c-.1631,0-.2451-.0352-.2451-.1045a4.5622,4.5622,0,0,1-.7168-.0528,4.6054,4.6054,0,0,0-.7178-.0527,1.6994,1.6994,0,0,1-.49-.0869,5.416,5.416,0,0,1-.56-.21q-.2812-.123-.56-.28a1.9522,1.9522,0,0,1-.42-.2979h-.28l-.2442.2451c-.4209-.2334-.8115-.46-1.1728-.6826s-.7178-.46-1.0674-.7178l-.3848.1055c-.1172-.1162-.2578-.2627-.4209-.4375s-.32-.3613-.4716-.56a5.8,5.8,0,0,1-.4034-.5957,1.1381,1.1381,0,0,1-.1748-.5771l.1055-.21-.28-.1748a2.2886,2.2886,0,0,1-.7177-.9629,14.9928,14.9928,0,0,1-.6827-1.6621,17.4394,17.4394,0,0,1-.5068-1.7324,5.9266,5.9266,0,0,1-.1924-1.208,2.5758,2.5758,0,0,1,.1045-.7354q.1055-.3486.21-.6816a6.4767,6.4767,0,0,0,.1748-.6826,1.9384,1.9384,0,0,0,0-.7354.828.828,0,0,1,.28-.4023,2.6957,2.6957,0,0,0,.3505-.2979,4.44,4.44,0,0,1,.5245-1.7675,12.6635,12.6635,0,0,1,1.33-2.17,10.8922,10.8922,0,0,1,1.7325-1.8369,2.795,2.795,0,0,1,1.7324-.77.2853.2853,0,0,1,.21.07,13.9851,13.9851,0,0,1,2.4678-1.2422,7.5616,7.5616,0,0,1,2.7129-.4726,2.483,2.483,0,0,0,.5244-.0528c.1631-.0351.3379-.0751.5254-.123q.28-.0688.5772-.14a2.5609,2.5609,0,0,1,.5781-.07,11.9608,11.9608,0,0,1,2.1172.1934,12.1346,12.1346,0,0,0,2.1523.1924c.1631,0,.3027-.1279.42-.3858q.1743-.3837.35-.8574a4.4435,4.4435,0,0,1,.4375-.875.765.765,0,0,1,.6485-.4023.5865.5865,0,0,1,.4541.1924A2.3639,2.3639,0,0,1,151.9688,226.6992Z" transform="translate(-37.3472 -64.4912)"/>
    <path class="cls-1" d="M174.7891,249.4141a.936.936,0,0,1-.5254.5947,3.3482,3.3482,0,0,1-.9092.2978,4.5461,4.5461,0,0,1-.9805.0694,3.8207,3.8207,0,0,1-.7695-.0869,3.5845,3.5845,0,0,0-.91-.1573,9.6175,9.6175,0,0,0-.98.0166c-.3272,0-.6826.0127-1.0674.0352s-.7871.0352-1.207.0352a2.7337,2.7337,0,0,0-.5957.07q-.315.07-.5948.1045l-.1748-.14-.1748-.3848a.7022.7022,0,0,1,.2276-.5078,2.0547,2.0547,0,0,1,.5419-.3847,3.2246,3.2246,0,0,1,.6651-.2452q.35-.0864.5947-.123l.1758.0352c.0693-.0225.1162-.1045.14-.2452s.04-.3027.0528-.4892c.0107-.1865.0176-.3613.0176-.5254v-4.41a.6616.6616,0,0,0,.2793-.3144,2.27,2.27,0,0,1-.14-.6651v-.665q0-.42-.0352-.84t-.1044-.8409a5.0553,5.0553,0,0,0-.6651-.14,5.9861,5.9861,0,0,0-.7-.0352l-.07.07H165.69l-.5254-.28c-.6075.0468-1.2246.1054-1.8555.1748a16.7144,16.7144,0,0,1-1.8545.1054,1.48,1.48,0,0,1-.4375-.07q-.2285-.0689-.4727-.14a1.86,1.86,0,0,1-.49.3848l-.7344-.0352q-.2109,0-.665.0176c-.3037.0127-.4551.1113-.4551.2978a13.5857,13.5857,0,0,0,.1221,1.82,13.5638,13.5638,0,0,1,.123,1.8194,2.0145,2.0145,0,0,1-.1582.77,2.03,2.03,0,0,0-.1572.7695.6984.6984,0,0,0,.1572.42.794.794,0,0,1,.1582.49.7807.7807,0,0,1-.0879.35,2,2,0,0,1-.1923.3154h.2451a3.6685,3.6685,0,0,1-.0176.42,2.2659,2.2659,0,0,0-.0176.28,1.3531,1.3531,0,0,0,.28.9971,3.8224,3.8224,0,0,0,.8047.5429c.0928.0469.1924.1.2978.1573s.2149.122.3321.1924l.3506-.1045.0693.455q0,.3854-.1924.4717a.9685.9685,0,0,0-.3672.333,19.991,19.991,0,0,1-2.415-.1406q-1.1558-.1392-2.38-.21l-.0352.28a2.7307,2.7307,0,0,0-.91-.1748.7784.7784,0,0,0-.3848.1221.9545.9545,0,0,1-.49.123.5775.5775,0,0,0-.1924-.0879c-.0586-.0117-.1348-.0283-.2275-.0527a.59.59,0,0,1-.1748-.0693l-.1407-.1055a.161.161,0,0,1-.1045-.1748l-.07-.21a1.2,1.2,0,0,1,.5606-.542c.2558-.1289.5127-.2568.7695-.3857a2.0891,2.0891,0,0,0,.6123-.4375.7341.7341,0,0,0,.0879-.7344q.1392-.9449.2627-1.9082a15.4731,15.4731,0,0,0,.1221-1.9424,2.2922,2.2922,0,0,0-.1924-.9277,2.2609,2.2609,0,0,1-.1924-.9268,7.6188,7.6188,0,0,1,.1572-1.5576,7.377,7.377,0,0,0,.1582-1.5224,14.477,14.477,0,0,0-.1054-1.6973,14.785,14.785,0,0,1-.1055-1.7334.8612.8612,0,0,1,.2109-.4893,1.2384,1.2384,0,0,1-.2275-.7177c-.0127-.291-.0176-.543-.0176-.753s-.0127-.4541-.0351-.7343-.0586-.5655-.1055-.8575-.1045-.5712-.1748-.84a1.5811,1.5811,0,0,0-.28-.6133.6461.6461,0,0,0-.3848-.2617c-.1865-.0586-.38-.1172-.5771-.1758a1.3835,1.3835,0,0,1-.5078-.2617.6048.6048,0,0,1-.21-.49,1.5462,1.5462,0,0,1,.2627-.4024.5179.5179,0,0,1,.3672-.2275,10.1884,10.1884,0,0,1,1.2256.0869,5.7236,5.7236,0,0,1,1.1894.2627h1.4a3.8629,3.8629,0,0,0,1.085-.1748,7.5572,7.5572,0,0,1,1.12-.2451l.1748.07.4551-.1055a1.2067,1.2067,0,0,1,.4727.2276,3.9757,3.9757,0,0,1,.4375.4375.8318.8318,0,0,0-.28.1748,2.371,2.371,0,0,0-.21.2451l-.21.2451a2.05,2.05,0,0,1-.2452.28,1.9562,1.9562,0,0,0-.3847-.0352.6036.6036,0,0,0-.5254.2451,1.7379,1.7379,0,0,0-.2627.5948,2.9345,2.9345,0,0,0-.0869.7177v3.377a1.4,1.4,0,0,1,.21.5078,4.0393,4.0393,0,0,1,.0352.5771l-.28.4551a1.1709,1.1709,0,0,0,.14.3154c.07.1172.1279.2217.1748.3145a1.6294,1.6294,0,0,1,.49.1406l.1406-.0351.2442.0351q.77.07,1.54.14t1.5752.1748c.1406-.0694.2686-.128.3848-.1748a1.1491,1.1491,0,0,1,.42-.0694l.2109.1045.63-.1045.2451.14h2.0645a3.5873,3.5873,0,0,0,.4726-.0352,4.001,4.001,0,0,1,.5079-.0351l.14-.1045h.56a.2686.2686,0,0,0,.1054-.0352c.0469-.0234.0928-.0469.14-.07a3.1872,3.1872,0,0,0,.0527-.7344q-.0175-.35-.0176-.7a3.1064,3.1064,0,0,1,.0352-.4726.7067.7067,0,0,1,.21-.4024,2.72,2.72,0,0,1-.21-1.1377,9.8412,9.8412,0,0,1,.07-1.2421l-.1406.14a10.5857,10.5857,0,0,0-.0869-1.7148,1.064,1.064,0,0,0-.5957-.8057c-.1045-.0459-.2158-.0928-.3321-.14a7.9093,7.9093,0,0,1-1.1552-.7v-.4551a.8191.8191,0,0,0,.2451-.2969.3068.3068,0,0,1,.3154-.1582c.4893.0244.9912.0586,1.5049.1055a8.4634,8.4634,0,0,0,1.54,0l.21.14q1.0137-.1039,2.0469-.2275,1.0326-.1216,2.083-.2617l.42.2793.1045.21v.2451c0,.07-.0752.1582-.2266.2627a4.5305,4.5305,0,0,1-.5429.3155c-.21.1045-.42.2041-.63.2968s-.3623.1641-.4551.21a4.0524,4.0524,0,0,0-.5254,1.3828,4.0075,4.0075,0,0,0,0,1.4873,2.813,2.813,0,0,0-.1221.63q-.0526.4555-.0527.63-.0351.4555-.0869.91a5.9272,5.9272,0,0,1-.1231.7354,20.1061,20.1061,0,0,0,.21,2.9053,19.95,19.95,0,0,1,.21,2.9043,2.3778,2.3778,0,0,1-.1221.7529,2.3566,2.3566,0,0,0-.123.7519q0,.5962.07,1.4a4.4522,4.4522,0,0,1-.07,1.4q.07.3853.123.7168c.0352.2227.0752.461.1221.7178a1.2478,1.2478,0,0,0,.1054.3154,1.7663,1.7663,0,0,0,.21.3145c.0693.0937.1572.2051.2627.333s.2383.2861.4023.4726l1.0147.1045.21.21v.07c.0235.0234.0469.0469.07.0693A1.7013,1.7013,0,0,0,174.7891,249.4141Z" transform="translate(-37.3472 -64.4912)"/>
    <path class="cls-1" d="M217.3838,257.3936a1.4976,1.4976,0,0,1-.3848.7q-.3852.4891-.91,1.0849l-1.7149,1.7149a2.7416,2.7416,0,0,0-.7.0175,5.4244,5.4244,0,0,0-.665.1582q-.35.1041-.665.2266t-.6651.2627q-.7.28-1.417.5078a5.0192,5.0192,0,0,1-1.5224.2275,2.3155,2.3155,0,0,1-.49-.0527c-.164-.0351-.3271-.0644-.49-.0869a.5849.5849,0,0,0-.56-.3506.4735.4735,0,0,0-.3506.1406l-.0693.0694a.686.686,0,0,1-.3154.1406,4.0739,4.0739,0,0,1-1.2071-.1582,4.1806,4.1806,0,0,1-.9629-.4375,9.0049,9.0049,0,0,1-.875-.6123,5.6429,5.6429,0,0,0-.98-.6123.8332.8332,0,0,0-.63-.1055.8374.8374,0,0,1-.63-.1045,7.4869,7.4869,0,0,1-1.1894-.8222q-.5611-.4732-1.085-.9981-.5259-.4906-1.0684-1.0146a8.2669,8.2669,0,0,0-1.1718-.9453,6.3405,6.3405,0,0,0-.77-.98l-.98-.98a9.667,9.667,0,0,1-.875-.9971,2.1956,2.1956,0,0,1-.4551-1.0674,8.3022,8.3022,0,0,1-2.9053-3.8857,15.2027,15.2027,0,0,1-1.6973-1.9072q-.6825-.9273-1.2773-1.9073t-1.12-1.9951q-.5259-1.015-1.2256-2.1347a1.4949,1.4949,0,0,0-.4893-.5254c-.21-.14-.4091-.2676-.5957-.3848a.6664.6664,0,0,0-.3847.1572,2.51,2.51,0,0,0-.4024.3848q-.1933.2285-.3672.4727c-.1171.164-.21.2919-.28.3847a1.08,1.08,0,0,0-.2276.5254,2.2706,2.2706,0,0,0-.0175.63q.0351.315.0878.6475a3.744,3.744,0,0,1,.0518.5771,7.0808,7.0808,0,0,1-.21,1.6982,7.1355,7.1355,0,0,0-.21,1.6973.2284.2284,0,0,0,.1054.2275.4642.4642,0,0,0,.21.0528,1.8573,1.8573,0,0,0-.0351.42,9.2,9.2,0,0,0,.0878.98,11.0389,11.0389,0,0,0,.2793,1.4355,8.2286,8.2286,0,0,0,.4551,1.3125q.2637.5772.5781.5772a1.78,1.78,0,0,1,.35.0351,2.1087,2.1087,0,0,1,.3505.1045,1.7681,1.7681,0,0,0,.3848.1055,2.5344,2.5344,0,0,0,.42.0352.81.81,0,0,1,.4551.14,2.562,2.562,0,0,1,.3848.3154.6785.6785,0,0,1-.14.3145l-.1054.1055c-.0235.0468-.0469.0937-.07.14a.3081.3081,0,0,0-.0341.1406q-1.1557,0-2.3106-.0527t-2.31-.0527a.4983.4983,0,0,1-.333-.14.5336.5336,0,0,0-.3672-.1406,5.9659,5.9659,0,0,0-1.5751.21q-.7706.2109-1.5752.3505c-.1866.0225-.3614.04-.5245.0518s-.3271.0176-.49.0176a.7561.7561,0,0,1-.42-.14c-.14-.0937-.2686-.1748-.3848-.2451l-.1054-.28a2.3791,2.3791,0,0,1,.455-.2968,2.5252,2.5252,0,0,1,.5254-.1924l.2451-.2451h.14a.9777.9777,0,0,0,.6474-.1231.9054.9054,0,0,0,.3321-.42,1.583,1.583,0,0,0,.1054-.5947v-.6123c-.0234-.1162-.041-.2334-.0527-.3506a3.4825,3.4825,0,0,1-.0176-.35q0-2.52.1748-4.9873t.1758-4.9532a10.8493,10.8493,0,0,0-.1054-1.54,10.8142,10.8142,0,0,1-.1045-1.5391c0-.2109.0048-.5664.0175-1.0683q.0162-.7515.0694-1.5567a11.6372,11.6372,0,0,1,.1924-1.5058,1.501,1.501,0,0,1,.42-.9092l-.5244-.3857a1.8,1.8,0,0,0,.0693-.4893v-.5254a1,1,0,0,0-.0342-.21.4472.4472,0,0,0-.1054-.21,4.1529,4.1529,0,0,0,.0175-.6826,6.7582,6.7582,0,0,0-.0879-.8223,3.4016,3.4016,0,0,0-.2275-.7881,1.7968,1.7968,0,0,0-.3672-.5771.6569.6569,0,0,0-.2627-.1573c-.1045-.0351-.2158-.0761-.332-.123a1.316,1.316,0,0,0-.3506-.0869,1.2749,1.2749,0,0,1-.35-.0879,4.6935,4.6935,0,0,1-.56-.1572.3524.3524,0,0,1-.2451-.3682.3685.3685,0,0,1,.0527-.1924.9942.9942,0,0,0,.087-.1924v-.0693a2.6513,2.6513,0,0,0,.6123-.07,2.6521,2.6521,0,0,1,.6132-.07,1.2248,1.2248,0,0,1,.3848.07c.14.0469.2676.0937.3848.14a.9054.9054,0,0,0,.28.0352q.91,0,1.8018.07.8936.07,1.8027.0693a7.265,7.265,0,0,0,.9981-.0693,7.5064,7.5064,0,0,1,1.0322-.07,1.7171,1.7171,0,0,0,.63-.1221,4.3132,4.3132,0,0,1,.63-.1924,1.6158,1.6158,0,0,1,.1924-.0527.9847.9847,0,0,1,.1923-.0176,1.1108,1.1108,0,0,1,.8057.35v.4551a3.663,3.663,0,0,0-1.8906.6123,1.99,1.99,0,0,0-.63,1.1026,3.8183,3.8183,0,0,0-.0869.6474,5.8459,5.8459,0,0,1-.0879.7178,5.5932,5.5932,0,0,1-.1924.7529,2.7942,2.7942,0,0,1-.4023.752l.35.49a1.5193,1.5193,0,0,0-.3145.35.753.753,0,0,0-.1406.42,2.5262,2.5262,0,0,0,.1055.7354q.1039.35.21.665.1392.3853.2276.7178a2.73,2.73,0,0,1,.0175,1.2949q-.07.2975-.1406.6123a.91.91,0,0,0-.2793.6651v.7695l.2793.4551q.35-.3486,1.1026-1.0674.7529-.7163,1.6806-1.6621.9258-.9448,1.89-2.0127.9624-1.0663,1.7675-2.0645a18.1322,18.1322,0,0,0,1.3125-1.82,2.7647,2.7647,0,0,0,.5079-1.3125.6542.6542,0,0,0-.4551-.5947,5.5453,5.5453,0,0,0-1.0508-.3506q-.28-.0688-.542-.14a3.6994,3.6994,0,0,1-.4375-.1407.7934.7934,0,0,1-.42-.2793,2.7869,2.7869,0,0,1,.2451-.4023.42.42,0,0,1,.35-.1934,3.0456,3.0456,0,0,1,.8223.1231c.292.082.5654.1455.8232.1924a2.9952,2.9952,0,0,0,.56.07q1.2246,0,2.4326-.07t2.4326-.07a2.5266,2.5266,0,0,0,.6475-.087c.2217-.0586.4375-.11.6474-.1582q.3487-.1039.6827-.1748a3.19,3.19,0,0,1,.6474-.0693.2752.2752,0,0,1,.28.21,1.1179,1.1179,0,0,1,.0342.2617v.2275c0,.1641-.11.28-.3321.3506s-.4609.14-.7177.21a2.3173,2.3173,0,0,1-.4727.0869,1.8681,1.8681,0,0,0-.4375.0879,3.0221,3.0221,0,0,0-.63.1748,1.7518,1.7518,0,0,0-.49.333q-.2446.2269-.5244.5068c-.0938.0938-.1807.1875-.2627.28a1.762,1.762,0,0,1-.2627.2451,5.103,5.103,0,0,1-.4551.42,2.3953,2.3953,0,0,0-1.0146.21,3.5088,3.5088,0,0,1-.4024.6475c-.1982.2685-.4326.5722-.7.91s-.56.6885-.875,1.05-.624.73-.9277,1.1026q-.4908.561-.91,1.0673-.419.5083-.77.8926-.35.4556-.56.7354a1.0286,1.0286,0,0,0-.2109.35,1.75,1.75,0,0,0,.1582.5254q.1568.3852.3672.8047c.14.28.2744.5488.4023.8046q.192.3868.2979.5606a1.8557,1.8557,0,0,0-.0352.42l.0352.2451a14.8729,14.8729,0,0,1,1.6621,2.17q.7528,1.19,1.4873,2.4854.7,1.2949,1.4531,2.5723a21.8251,21.8251,0,0,0,1.6621,2.4326q1.0856,1.33,2.1348,2.8349a24.3324,24.3324,0,0,1,1.82,3.045,14.0062,14.0062,0,0,1,1.54,1.2422q.7353.6825,1.3652,1.3828a1.163,1.163,0,0,0,.1748.63v-.07c-.0234.07.0176.128.123.1748a.7255.7255,0,0,0,.2969.07.5682.5682,0,0,1,.1748.0351,1.2987,1.2987,0,0,1,.1758.07h.14a1.9876,1.9876,0,0,0,.4551.3672,1.411,1.411,0,0,0,.35.1221,1.0609,1.0609,0,0,0,.3155.0351.6592.6592,0,0,0,.14.0528.5661.5661,0,0,1,.1748.0879q.1407.1743.42.455a.81.81,0,0,0,.5606.2793l.2451-.14.0693.07a.4777.4777,0,0,1,.0879.1045.4967.4967,0,0,0,.0879.1055.8718.8718,0,0,0,.2617.1748.4239.4239,0,0,0,.3682-.0352l.2451.2451,1.54-.0351v.1748c0,.1162.0283.1806.0869.1924a.8059.8059,0,0,0,.1572.0175.0622.0622,0,0,1,.07.07.3013.3013,0,0,0,.3154.1749,3.213,3.213,0,0,0,.5948-.0528,3.736,3.736,0,0,1,.665-.0517.2756.2756,0,0,0,.28-.21l.0693-.0352a1.2756,1.2756,0,0,1,.333.0694c.1514.0469.2627.082.3321.1054a2.4459,2.4459,0,0,0,.875.1749c.1865,0,.2451-.07.1757-.21h.0342a1.3764,1.3764,0,0,1,.3154.14l.2452-.3144a4.9679,4.9679,0,0,0,2.1-1.2949q.769-.8409,1.6806-1.82C217.2793,257.2188,217.3838,257.2764,217.3838,257.3936Z" transform="translate(-37.3472 -64.4912)"/>
    <path class="cls-1" d="M206.7441,229.0439a.44.44,0,0,0-.1582.1045.163.163,0,0,0-.0175.07,3.4181,3.4181,0,0,0-.1221.3671.2251.2251,0,0,1-.2275.1934l-.14.14a.9371.9371,0,0,0-.3506-.07.7517.7517,0,0,0-.6474.3155,1.8934,1.8934,0,0,0-.3145.7343,5.2766,5.2766,0,0,0-.1055.875q-.0175.4555-.0175.7v2.59a1.3839,1.3839,0,0,1,.21.5078,3.8974,3.8974,0,0,1,.0352.5771l-.3145.4551q.0338.8057.14,1.5576a10.9675,10.9675,0,0,1,.1045,1.5225q0,.63-.0518,1.2607t-.0527,1.26a4.9561,4.9561,0,0,0,.0879.9443,5.0667,5.0667,0,0,1,.0869.9454,1.2323,1.2323,0,0,1-.1748.665,1.0486,1.0486,0,0,0-.1748.56.7347.7347,0,0,0,.122.4024,2.2244,2.2244,0,0,1,.1924.3672l-.42.8047v.0351h.3848a1.4484,1.4484,0,0,1-.0342.3848v.1758a2.1252,2.1252,0,0,0,.3144,1.3466,2.3,2.3,0,0,0,1.2256.5782c.1865.0693.2559.1865.21.35v.1054a1.1172,1.1172,0,0,1-.0352.2969c-.0234.082-.0469.17-.07.2627a16.652,16.652,0,0,1-2.4678-.1748,16.2811,16.2811,0,0,0-2.3974-.1748l-.1748.21a.8941.8941,0,0,0-.3321-.07h-.333a2.4276,2.4276,0,0,0-.42.1054q-.35.1041-.4551.14a1.1972,1.1972,0,0,0-.3144-.14c-.0938-.0234-.21-.0469-.3506-.07a1.2764,1.2764,0,0,1-.0693-.1748.5426.5426,0,0,1-.0352-.1748c0-.1406.1162-.2568.35-.3506q.4893-.1743.9453-.3672a1.1542,1.1542,0,0,0,.63-.8222,11.3944,11.3944,0,0,0,.3672-2.1534q.0879-1.1367.0879-2.2216a2.6219,2.6219,0,0,0-.1748-.9454,2.5968,2.5968,0,0,1-.1758-.9453,8.7635,8.7635,0,0,1,.1406-1.5752,8.6329,8.6329,0,0,0,.14-1.54q0-.8041-.07-1.7324-.07-.9258-.14-1.8018l.2451-.4551a1.2273,1.2273,0,0,1-.2627-.788q.0177-.4014.0176-.8575a.3435.3435,0,0,0-.07-.2451q0-.28-.0166-.6826c-.0127-.2676-.0352-.5361-.07-.8047a7.54,7.54,0,0,0-.1406-.7695,1.4041,1.4041,0,0,0-.2266-.543.8519.8519,0,0,0-.4209-.2627q-.28-.0864-.5771-.1924a2.18,2.18,0,0,1-.5254-.2627.5011.5011,0,0,1-.2266-.4375l.42-.4541a4.8534,4.8534,0,0,0,.56.0518c.2334.0127.4726.0352.7178.07s.4775.07.7.1045a2.4973,2.4973,0,0,1,.5068.123h1.4355a3.8629,3.8629,0,0,0,1.085-.1748,7.7376,7.7376,0,0,1,1.085-.2451l.1748.07.49-.1406c.1162.07.2275.1406.332.21A2.2783,2.2783,0,0,1,206.7441,229.0439Z" transform="translate(-37.3472 -64.4912)"/>
    <path class="cls-1" d="M230.0713,229.7617q-.4731.3325-.7529.5069l-.35-.1045-.1055-.21.21-.1055h.0352l.07.1407v-.0352l.0352.0352v.0341q-.0352.1056-.1758.0352v.0352c.0937,0,.1279.0585.1055.1748q-.42,0-.6123.7a14.1018,14.1018,0,0,0-.3331,1.61q-.07.4908-.122.9619-.0528.4731-.1231.8926c-.0468.2568-.0869.49-.122.7a2.4543,2.4543,0,0,1-.1231.49,1.3009,1.3009,0,0,1,.0879.3672c.0117.1289.0176.251.0176.3672a5.6646,5.6646,0,0,1-.0352.6309,5.681,5.681,0,0,0-.0351.63,2.1921,2.1921,0,0,0,.123.7344,2.2246,2.2246,0,0,1,.1221.7354,9.1736,9.1736,0,0,1-.0694,1.12c-.0478.373-.082.7471-.1054,1.12q-.1407,2.4141-.1221,4.7422.0161,2.3275.0166,4.7422a.7334.7334,0,0,1-.1045.3857.7308.7308,0,0,0-.1055.3848l-.21.21a.4237.4237,0,0,0-.1572.0352.5119.5119,0,0,1-.1924.0352c-.14,0-.3155-.1348-.5254-.4034a10.0474,10.0474,0,0,1-.6475-.9443q-.3325-.542-.6123-1.0674a7.48,7.48,0,0,1-.3847-.8056l-.2452-.35a.5712.5712,0,0,0,.0352-.1748v-.07q-.3852-.4891-.665-.7871c-.1875-.1982-.3741-.4033-.5606-.6133-.1631-.1865-.3262-.39-.4892-.6123a5.5767,5.5767,0,0,1-.5254-.9277l-.0352.07a10.0693,10.0693,0,0,1-1.47-1.7676q-.63-.9624-1.26-1.9775c-.07,0-.17-.0752-.2978-.2275s-.2159-.2618-.2627-.3321q-.734-.9449-1.417-1.9248t-1.3828-1.9951l.0351-.1406a.361.361,0,0,0-.3154-.2793,2.9489,2.9489,0,0,0-.42-.63,3.4779,3.4779,0,0,1-.42-.5957.7408.7408,0,0,1-.0869-.35c-.0127-.1631-.03-.2451-.0527-.2451q-.4908-.4893-.8047-.875a7.9563,7.9563,0,0,1-.56-.77c-.14-.2109-.28-.4209-.42-.6308a3.9293,3.9293,0,0,0-.49-.5947,6.8914,6.8914,0,0,0-.0693.98v.98a10.307,10.307,0,0,1-.0528,1.0674,1.8653,1.8653,0,0,1-.2275.7881,3.1692,3.1692,0,0,0,.1748.3672,2.4978,2.4978,0,0,1,.1748.4023q0,1.0152-.1045,2.0654t-.1748,2.0645l-.1758.3506c.0469.1172.0938.2392.1407.3672a1.1919,1.1919,0,0,1,.0693.4023,8.6351,8.6351,0,0,1-.0869,1.05,8.1652,8.1652,0,0,1-.2276,1.1553l.21-.0352q0,.3853-.0527,1.2432a12.2345,12.2345,0,0,0,.0175,1.7324q.0352.3853.0879.7344a2.6843,2.6843,0,0,0,.1573.6123.8269.8269,0,0,0,.28.3857.5314.5314,0,0,0,.4551.0518l.21.2109h.0693a3.19,3.19,0,0,0,.4727.087.8783.8783,0,0,1,.3505.1054,1.3575,1.3575,0,0,1,.2969.2276,2.4623,2.4623,0,0,1,.3155.42q-.1758.1758-.42.4726a.69.69,0,0,1-.5254.2969,4.1757,4.1757,0,0,1-1.0849-.14,8.2281,8.2281,0,0,0-1.085-.21.6839.6839,0,0,1-.333.0527.869.869,0,0,1-.2969-.0879q-.63.07-1.2773.1221a8.4575,8.4575,0,0,0-1.2432.1924l-.21.1406a1.5882,1.5882,0,0,1-.6123-.3506.7864.7864,0,0,1-.3321-.5947.4992.4992,0,0,1,.3145-.42,3.1652,3.1652,0,0,1,.7-.28,6.8855,6.8855,0,0,1,.7178-.1572c.2216-.0352.3437-.0752.3671-.1221a4.8173,4.8173,0,0,0,.28-1.2949,2.9313,2.9313,0,0,1-.07-.5254,6.52,6.52,0,0,1,.1748-1.4873,6.5255,6.5255,0,0,0,.1748-1.4873,1.1907,1.1907,0,0,0-.1045-.4033,3.1346,3.1346,0,0,0-.21-.4375v-10.08l.2451-.42a3.782,3.782,0,0,0-.2627-1.3994,1.3674,1.3674,0,0,0-1.0674-.84,1.6,1.6,0,0,0-.42-.0351c-.0938,0-.2227-.0059-.3848-.0176a3.0445,3.0445,0,0,1-.4726-.07,1.1564,1.1564,0,0,1-.3858-.1573.3545.3545,0,0,1-.1572-.3154.9666.9666,0,0,1,.2978-.6123.8636.8636,0,0,1,.6475-.332,18.5845,18.5845,0,0,1,1.8545.1221q1.1558.123,1.96.1572a7.9294,7.9294,0,0,0,1.3829-.0518c.4785-.0586.9394-.11,1.3828-.1582q.2446,0,.7343.5781a13.9061,13.9061,0,0,1,.9981,1.3477q.5068.769.9453,1.54a8.7343,8.7343,0,0,1,.5772,1.1543l.0351-.0351a.2992.2992,0,0,0,.0527-.0694.9749.9749,0,0,1,.1924-.1748,3.8727,3.8727,0,0,0,.35.8575,7.1714,7.1714,0,0,0,.4551.6992c.1631.2226.32.4375.4727.6474a5.4134,5.4134,0,0,1,.4375.7354.4518.4518,0,0,0,.21.3672q.21.1581.4375.3506a2.4012,2.4012,0,0,1,.42.4726,1.2755,1.2755,0,0,1,.1923.7344l.35.2451c.0938.1406.1807.2744.2627.4024a4.2009,4.2009,0,0,0,.2627.3681l-.1045-.0351q.1392,0,.6641.6474t1.1553,1.4873q.63.8394,1.208,1.61t.7519,1.0146a1.6531,1.6531,0,0,0,.07-.6826q-.0352-.3676-.0352-.6826a1.539,1.539,0,0,1,.07-.4893,3.63,3.63,0,0,1,.21-.49,4.2576,4.2576,0,0,0-.1924-1.0156,3.28,3.28,0,0,1-.1582-1.0147q0-1.5747.0176-3.2373a10.1838,10.1838,0,0,1,.5429-3.2031l-.21-.21-.07-.21a2.411,2.411,0,0,0-.1924-1.19,1.8913,1.8913,0,0,0-.6475-.7353,2.6137,2.6137,0,0,0-.9629-.3848,8.6056,8.6056,0,0,0-1.1367-.14,3.5024,3.5024,0,0,0-.2275-.333.5783.5783,0,0,1-.1231-.3672.6128.6128,0,0,1,.2276-.4551.6951.6951,0,0,1,.4726-.21h.21c.07,0,.1748.0059.3154.0176s.32.0234.542.0352.52.0175.8926.0175l-.84.0342a.9038.9038,0,0,0,.1221.0528.9514.9514,0,0,1,.1231.0527h1.2949q.3837.0351.7343.0351a1.5165,1.5165,0,0,1,.5254.0694q.5948-.1392,1.2774-.3145a5.18,5.18,0,0,1,1.2773-.1748,2.7184,2.7184,0,0,1,1.0157.21v.5244A2.7866,2.7866,0,0,1,230.0713,229.7617Z" transform="translate(-37.3472 -64.4912)"/>
    <path class="cls-1" d="M252.89,240.9092q-.2269.1039-.5244.21a5.98,5.98,0,0,1-.5947.1748c-.1992.0469-.3447.0821-.4375.1045a4.9865,4.9865,0,0,0-.56,1.628,4.7085,4.7085,0,0,0-.0361,1.6972,1.4326,1.4326,0,0,0-.1572.8057,6.1488,6.1488,0,0,0,.0879.9092q-.07.2109-.208.5781-.1392.3676-.294.752a6.4475,6.4475,0,0,1-.33.7,1.0961,1.0961,0,0,1-.3457.42,2.4322,2.4322,0,0,1-.5537.2627q-.3456.123-.5879.1924c-.1855.07-.3584.14-.5195.21a.7191.7191,0,0,0-.3467.28,7.1381,7.1381,0,0,0-2.21.1924q-1.0167.2622-2.14.4375a7.34,7.34,0,0,1-1.5078.14.28.28,0,0,1-.1758-.0342.031.031,0,0,1-.0351-.0351c-.2569-.0235-.503-.0469-.7364-.07a7.0164,7.0164,0,0,0-.7011-.0352,2.8257,2.8257,0,0,1-1.0879-.2969,3.8891,3.8891,0,0,1-.9815-.5781h-.2812l-.2451.21q-.5977-.315-1.1582-.6651t-1.087-.7l-.3505.1055a5.0837,5.0837,0,0,1-.4571-.4375,7.196,7.196,0,0,1-.4726-.56,4.12,4.12,0,0,1-.3858-.5957,1.2237,1.2237,0,0,1-.1582-.5771l.07-.21-.2812-.1748a2.2927,2.2927,0,0,1-.7188-.98,14.2743,14.2743,0,0,1-.666-1.6622q-.2988-.8936-.4912-1.7324a6.2463,6.2463,0,0,1-.1924-1.2256,2.4272,2.4272,0,0,1,.1055-.7c.07-.2324.14-.4658.21-.6992a5.1829,5.1829,0,0,0,.1572-.6826,2.1307,2.1307,0,0,0-.0176-.7178,1.0469,1.0469,0,0,1,.3154-.4023,1.23,1.23,0,0,0,.3145-.333,4.2955,4.2955,0,0,1,.543-1.7324,14.26,14.26,0,0,1,1.33-2.17,10.36,10.36,0,0,1,1.7149-1.8369,2.795,2.795,0,0,1,1.7324-.77.3418.3418,0,0,1,.2451.07,13.951,13.951,0,0,1,2.4678-1.2422,7.56,7.56,0,0,1,2.7119-.4726,1.9059,1.9059,0,0,0,.5254-.07c.1631-.0469.3379-.0928.5244-.14s.38-.0879.5781-.123a3.3008,3.3008,0,0,1,.5772-.0528,11.9691,11.9691,0,0,1,2.1181.1934,12.1365,12.1365,0,0,0,2.1524.1924c.1631,0,.3027-.1279.42-.3858q.1743-.3837.35-.8574a4.3894,4.3894,0,0,1,.4375-.875.7634.7634,0,0,1,.6475-.4023.5886.5886,0,0,1,.4551.1924,2.42,2.42,0,0,1,.28.3681q-.3148.5948-.5429,1.085a5.8763,5.8763,0,0,0-.35.9443,7.621,7.621,0,0,0-.1924.9629,8.6457,8.6457,0,0,0-.07,1.1729,4.3034,4.3034,0,0,0,.2627,1.4873,4.303,4.303,0,0,1,.2627,1.4873.4976.4976,0,0,1-.1924.4023c-.1289.1055-.251.2051-.3682.2979h-.3848a.6414.6414,0,0,1-.4023-.21.2565.2565,0,0,1-.0176-.42,1.2405,1.2405,0,0,1-.2451-.4551,4.1,4.1,0,0,0-.1748-.49v-.21a1.3361,1.3361,0,0,0-.49-.9277,4.9132,4.9132,0,0,0-1.1729-.8223,8.7169,8.7169,0,0,0-1.417-.5771,4.2815,4.2815,0,0,0-1.2246-.2276,5.4316,5.4316,0,0,0-.7529.0518,5.3059,5.3059,0,0,1-.753.0527,1.841,1.841,0,0,1-.6123-.1045,1.7218,1.7218,0,0,0-.5771-.1054,3.2166,3.2166,0,0,0-.77.4375q-.6651.4379-1.47,1.0146-.8057.5786-1.54,1.1025-.7353.5259-.98.7354v.3848a15.83,15.83,0,0,0-1.4883,3.1328,9.9249,9.9249,0,0,0-.6123,3.3076,4.5362,4.5362,0,0,0,.1231.9453q.1215.5595.3144,1.1543t.42,1.1728a8.7394,8.7394,0,0,0,.4375.9629l-.2793.35v.0352l.3154-.07q.1758.1758.6318.5947.4556.42.9483.9453t.9131,1.0147a3.0062,3.0062,0,0,1,.5273.77h.1406a1.8275,1.8275,0,0,0,.4034-.0527,2.8142,2.8142,0,0,0,.4042-.1221l.2452.21a6.736,6.736,0,0,1,1.1767.1748q.5787.1407,1.1768.28l.21-.1758a.5442.5442,0,0,0,.2461-.0517.5377.5377,0,0,1,.2461-.0528.9655.9655,0,0,1,.4034.0879,1.6347,1.6347,0,0,0,.4042.1221c.0225-.07.1045-.1055.2452-.1055a.5253.5253,0,0,0,.2812-.0869.5847.5847,0,0,1,.3164-.0879,1.0267,1.0267,0,0,0,.4737-.14,2.7735,2.7735,0,0,0,.5087-.3506,3.143,3.143,0,0,0,.4385-.4541,1.803,1.803,0,0,0,.2637-.4209,1.3754,1.3754,0,0,1-.1924-.5771,5.4217,5.4217,0,0,1-.0527-.77q0-.4027.0351-.7881.0337-.3837.0694-.63l-.1748-.07a7.66,7.66,0,0,0-.1924-1.89.9486.9486,0,0,0-.3672-.56.8944.8944,0,0,0-.333-.07h-.332a3.8639,3.8639,0,0,1-.4551-.1055,1.6353,1.6353,0,0,1-.5254-.2793v-.3154l.3506-.42q.8041.07,1.5722.123a13.86,13.86,0,0,0,1.5645.0166l.1728.1055,4.0049-.4551.3848.3155v.2441C253.1172,240.7813,253.042,240.8389,252.89,240.9092Z" transform="translate(-37.3472 -64.4912)"/>
  </g>
  <path d="M59.6938,88.7026a2.361,2.361,0,0,0,.0049.8623c.0537.35.1153.7227.1856,1.1163a4.6817,4.6817,0,0,1,.0771,1.0751c-.02.32-.1289.4639-.332.4258l-.2363.709a2.2929,2.2929,0,0,0-.9873.1748q-1.2818.4306-1.48,2.3848a15.8307,15.8307,0,0,0,.2456,4.3994,45.36,45.36,0,0,0,1.19,4.9453q.7456,2.5005,1.27,4.0518l4.6983,13.67a20.1139,20.1139,0,0,1,2.4424,4.9941l-.1309,2.7178q1.4634,4.0678,3.1851,8.0469,1.72,3.9815,3.1,8.0742,1.095,3.252,2.04,6.624.9463,3.38,2.04,6.624.8556,2.5416,1.9019,4.9415,1.0445,2.4022,1.854,4.8a11.174,11.174,0,0,1,.6524,3.6318,9.7537,9.7537,0,0,0,.51,3.209,6.1447,6.1447,0,0,0,1.0308,1.9326,17.387,17.387,0,0,1,1.2881,1.8467l.145,4.6679.4936.6192,1.0254-.3447a7.6281,7.6281,0,0,1,.3184,1.2294,6.5931,6.5931,0,0,0,.2715,1.087q1.8075,5.3687,3.6113,7.1963a7.3125,7.3125,0,0,0,5.0039,2.01.9346.9346,0,0,1,.5791.5908c.0947.2823.2065.6133.333.9883a8.0884,8.0884,0,0,1,.2949,1.1592,7.0724,7.0724,0,0,0,.2471,1.0166,30.077,30.077,0,0,1-7.5679,1.5264,26.2876,26.2876,0,0,0-7.52,1.6679l-.2275,1.02a1.78,1.78,0,0,0-1.0347.0341q-.5127.1729-.9394.3165a4.8916,4.8916,0,0,0-1.1143.9257,8.0079,8.0079,0,0,0-1.1055,1.2364,2.3007,2.3007,0,0,0-1.0244-.3614c-.3613-.0361-.7-.0517-1.0161-.0517a2.1176,2.1176,0,0,0-.2754-.5362,2.0343,2.0343,0,0,1-.2759-.5351,1.3391,1.3391,0,0,1,.3887-1.3887q.6255-.6827,1.394-1.6484a8.0915,8.0915,0,0,0,1.28-2.5547,8.7966,8.7966,0,0,0-.0034-4.2432A112.0891,112.0891,0,0,0,74.8491,183.83q-1.7211-6.1011-3.624-11.751a25.1156,25.1156,0,0,0-2.2666-4.8965,24.383,24.383,0,0,1-2.22-4.7549,75.6663,75.6663,0,0,1-2.2881-8.3486,76.1538,76.1538,0,0,0-2.2881-8.3486q-1.4268-4.2363-3.3-8.9522-1.8721-4.7109-3.5654-9.1757l-.002-2.8292a10.0964,10.0964,0,0,1-2.3428-3.85q-.736-2.187-1.4975-4.4482c-.063-.1875-.15-.4453-.2613-.7764a1.5887,1.5887,0,0,0-.4326-.7187q-.4276-1.2716-1.1841-3.375t-1.64-4.1651q-.8854-2.0595-1.8486-3.9375a16.85,16.85,0,0,0-1.772-2.8623,3.247,3.247,0,0,0-1.7808-1.0507q-1.02-.2052-2.083-.4a8.89,8.89,0,0,1-1.8945-.541A2.2557,2.2557,0,0,1,37.3472,97.17l.3593-2.3232a12.7258,12.7258,0,0,0,1.6748-.2491q1.1148-.2168,2.34-.3935a20.691,20.691,0,0,1,2.2588-.2109,2.736,2.736,0,0,1,1.5185.2753l4.5264-1.5244a8.0554,8.0554,0,0,0,2.936-2.0107,15.0518,15.0518,0,0,1,2.8409-2.294l.6079.1094,1.2617-1.0527A7.0645,7.0645,0,0,1,59.6938,88.7026Z" transform="translate(-37.3472 -64.4912)"/>
  <path d="M55.8687,92.4448a2.3466,2.3466,0,0,0,.19.6143q.16.372.3477.7881a4.813,4.813,0,0,1,.2758.7617c.06.23.0288.3359-.0937.3193l.0215.5156a.91.91,0,0,0-.5176.169q-.627.3662-.314,1.7656a16.2534,16.2534,0,0,0,1.0938,3.1231q.7792,1.7211,1.7436,3.4677.9624,1.7492,1.5943,2.8291l5.6123,9.5235a21.5447,21.5447,0,0,1,2.459,3.4463l.5161,1.94q1.7079,2.8331,3.54,5.5869,1.8325,2.7583,3.498,5.6113,1.3213,2.2647,2.5865,4.625,1.2656,2.3628,2.5864,4.625,1.0348,1.7726,2.1436,3.4336,1.1088,1.6626,2.0854,3.334a11.9185,11.9185,0,0,1,1.1563,2.5576,10.3318,10.3318,0,0,0,.9843,2.2627,6.4828,6.4828,0,0,0,.9995,1.33q.5406.5435,1.1246,1.2549l1.0961,3.3193.4126.419.5015-.293a8.501,8.501,0,0,1,.4468.8613,7,7,0,0,0,.3882.7617,21.1489,21.1489,0,0,0,3.5952,4.962,4.7507,4.7507,0,0,0,3.251,1.2031.8556.8556,0,0,1,.4536.3945c.1152.1973.2495.4278.4023.6885a8.8725,8.8725,0,0,1,.418.8125,7.5035,7.5035,0,0,0,.36.7129,11.66,11.66,0,0,1-3.9252,1.4326,10.1425,10.1425,0,0,0-3.8682,1.5313l.0937.7363a.765.765,0,0,0-.5742.0722q-.2505.1465-.4594.2676a2.2076,2.2076,0,0,0-.4263.71,4.2318,4.2318,0,0,0-.3526.9316,1.4346,1.4346,0,0,0-.6552-.2109,4.5154,4.5154,0,0,0-.5826.01,2.1366,2.1366,0,0,0-.2709-.3682,2.132,2.132,0,0,1-.2715-.37,1.1036,1.1036,0,0,1-.084-1.0069q.2043-.5156.4263-1.2382a5.61,5.61,0,0,0,.165-1.877,8.7459,8.7459,0,0,0-.9233-3.0225q-1.7644-3.9828-4.0586-8.2519t-4.5918-8.2051a26.975,26.975,0,0,0-2.3389-3.3848,26.3368,26.3368,0,0,1-2.2813-3.2861q-1.6655-2.855-3.101-5.8428t-3.1006-5.8437q-1.7227-2.9517-3.8008-6.2246-2.0764-3.2726-3.9995-6.375l-.6152-2.0156a10.4784,10.4784,0,0,1-2.1534-2.6348q-.8905-1.5234-1.8095-3.1006c-.0762-.13-.1807-.31-.3155-.54a1.6555,1.6555,0,0,0-.4-.4932q-.5163-.8847-1.3989-2.3486T53.3267,106.33q-.9464-1.4268-1.8951-2.7207a17.5166,17.5166,0,0,0-1.6191-1.957,2.42,2.42,0,0,0-1.229-.668q-.6189-.1-1.2593-.19a5.1349,5.1349,0,0,1-1.1826-.3,2.16,2.16,0,0,1-1.0024-.998l-.3028-1.67a5.2618,5.2618,0,0,0,.8882-.2539q.58-.2065,1.2295-.3887a8.621,8.621,0,0,1,1.2256-.2529,1.457,1.457,0,0,1,.9136.1269l2.2148-1.293A3.3955,3.3955,0,0,0,52.5229,94.2a6.7627,6.7627,0,0,1,1.1-1.7627l.3652.05.4814-.8076A5.38,5.38,0,0,1,55.8687,92.4448Z" transform="translate(-37.3472 -64.4912)"/>
  <path d="M217.3294,214.9914l-.0138-.0451-.0081-.0261a8.7678,8.7678,0,0,1-.6057-2.5471l-.1541-.0747a20.6319,20.6319,0,0,1,.3753-4.9983,14.5951,14.5951,0,0,0-.5126-2.7689,21.31,21.31,0,0,1-1.36-3.3126,9.4875,9.4875,0,0,1-.2249-1.8264,3.1229,3.1229,0,0,1-.4091-2.1251,1.2208,1.2208,0,0,0-.5846.294,7.8568,7.8568,0,0,1-4.2533,3.9916q-2.8031,1.098-9.6833,1.0965a9.8937,9.8937,0,0,1-1.3577-.0879A11.5709,11.5709,0,0,0,197,202.4734v1.0528l-.9055.2633-5.43-1.3161a25.2022,25.2022,0,0,0-2.6245.6141,9.1376,9.1376,0,0,1-2.6244.3512,14.5216,14.5216,0,0,1-3.8911-.5266,16.691,16.691,0,0,0-4.4345-.5262q-3.0747,0-6.2444.2191-3.1643.22-6.4255.22-4.1613,0-8.4156-.1754-4.2508-.1754-8.4166-.1758-5.2479,0-10.4972.3512t-10.4977.4382l-3.0772-.9648a30.1315,30.1315,0,0,0-6.6967.702l-17.5566.0875q-1.99,0-5.1583-.0875-3.165-.0863-6.1538-.4387a23.02,23.02,0,0,1-5.1583-1.14q-2.1724-.79-2.1722-2.1056a1.8389,1.8389,0,0,1,.1811-.9649l-.7239-.4382c.1214-.1754,0-.3208-.3622-.4387a6.7283,6.7283,0,0,0-1.1236-.24c.7758,2.578-1.6368,5.4027-1.9662,7.987A4.9019,4.9019,0,0,1,77,206.9474v4.649a2.6064,2.6064,0,0,0-.905,1.3157,17.1068,17.1068,0,0,0-.6333,2.1493q-.2716,1.1843-.4528,2.2805a10.4665,10.4665,0,0,1-.3617,1.6232l2.5339,1.0523a3.1317,3.1317,0,0,0,2.1722-.6578,8.9682,8.9682,0,0,0,1.3572-1.579q.6366-.9211,1.2672-1.798a3.8071,3.8071,0,0,1,1.9-1.3157,24.6994,24.6994,0,0,1,3.9821-.7458q2.5367-.3064,5.2489-.4824,2.715-.1746,5.43-.22,2.7148-.0428,4.3438-.0437a2.3359,2.3359,0,0,1,.9956-.1754h6.6966a14.8647,14.8647,0,0,0,5.159-.9055c.1015-.15.6228-.14.73-.11h0a8.58,8.58,0,0,1,1.7073.0065h.0014c.4526.0423.9048.1078,1.36.1907.04.0073.08.0127.12.02.2951.0549.275.1445.1489.2215.481.08.9614.161,1.4483.2348.2218.0335.3156.1025.3245.1734,3.1131-.1022,6.28-.218,9.5441-.3577q6.1554-.2631,11.5834-.2633,5.2507,0,10.4977.4825,5.2508.4833,10.4977.4824a36.603,36.603,0,0,0,6.3345-.57,37.8153,37.8153,0,0,1,6.5156-.57q7.2419,0,14.9321.3071,7.6956.308,14.5709,1.184a12.4958,12.4958,0,0,1,4.8867,1.3161,9.0605,9.0605,0,0,1,2.4433,1.9735c.3546.4392.656.8353.9333,1.2117a4.4771,4.4771,0,0,0,1.85.1774,3.7175,3.7175,0,0,0,1.2822-1.0868A3.106,3.106,0,0,0,217.3294,214.9914Z" transform="translate(-37.3472 -64.4912)"/>
  <path class="cls-2" d="M218.0154,202.2339a2.5743,2.5743,0,0,1-1.1781,2.0972,4.545,4.545,0,0,1-2.798.8828,42.2565,42.2565,0,0,1-6.995-.607A41.4659,41.4659,0,0,0,200.1965,204h-3.735q-2.0015,0-4.1538.1093-2.157.11-4.2308.2734a18.6531,18.6531,0,0,0-3.6154.6014,12.2088,12.2088,0,0,0-1.6923.3827,9.5566,9.5566,0,0,0-.923.3832,4.1646,4.1646,0,0,1-.9231.164q-.617.0537-2,.0547a4.0484,4.0484,0,0,1-.8462-.8206,1.5328,1.5328,0,0,1-.3846-.9294q0-1.0923,2-2.4061a7.7155,7.7155,0,0,1,3.5385-1.4219l1.0769.4373a4.1693,4.1693,0,0,0,2.9231-.9841,6.0645,6.0645,0,0,0,1.6154-2.57,17.4605,17.4605,0,0,0,.7692-3.6636q.2525-2.2712.4131-4.8076l.0042-2.6082a29.6951,29.6951,0,0,1,.275-5.8183,31.7667,31.7667,0,0,1,.6923-3.39,2.9119,2.9119,0,0,1,1.4615-1.9687,6.78,6.78,0,0,1-2.1538-3.336q-.4616-1.805-.7692-3.7734-.3108-1.8587-.5385-3.7733a8.2108,8.2108,0,0,0-1.3077-3.5542A40.7209,40.7209,0,0,0,188,155.658v-4.8121l-.1538-7.5468-1.2308-.9841q-9.3862,11.4842-17.6923,22.6944a159.8679,159.8679,0,0,0-14.46,23.46q-.7724,1.5327-1.9231,4.4841-1.1538,2.953-2.6923,6.1247a46.8377,46.8377,0,0,1-3.2308,5.6874,9.9467,9.9467,0,0,1-3.3846,3.3907,5.52,5.52,0,0,1-2.4621-2.0234,14.773,14.773,0,0,1-1.5384-2.9533,23.6522,23.6522,0,0,1-1-3.2261A26.0005,26.0005,0,0,1,137.6928,197h-.2952a6.116,6.116,0,0,1-2.5171-2.4282q-.6474-1.3242-1.2227-2.5386a13.5592,13.5592,0,0,0-1.0788-2.3179,3.9712,3.9712,0,0,0-2.23-1.6557,120.8068,120.8068,0,0,1-6.0412-10.8721q-2.7336-5.5722-5.7536-11.2036-3.0205-5.6287-6.5442-11.0376a66.7589,66.7589,0,0,0-8.5584-10.4859q-.8629,8.61-2.4452,16.9429a88.77,88.77,0,0,0-1.5823,16.6118,7.201,7.201,0,0,0,.4316,2.4283q.4314,1.2157.863,2.3178a16.2818,16.2818,0,0,1,.9349,2.4839,9.1467,9.1467,0,0,1,.36,2.4834,4.8082,4.8082,0,0,1-.6472,2.3731,15.5518,15.5518,0,0,0-1.0788,2.373A1.5707,1.5707,0,0,0,100,193.5234v1.1587a4.3162,4.3162,0,0,0,.863,2.5386,9.2953,9.2953,0,0,0,2.1576,2.1523,10.7619,10.7619,0,0,0,2.9487,1.49,10.1451,10.1451,0,0,0,3.2364.5517,10.4012,10.4012,0,0,1,2.1576.1656,9.8707,9.8707,0,0,1,1.2945.3867,2.2135,2.2135,0,0,0,.5754.331,2.41,2.41,0,0,1,.5753.3311,3.2026,3.2026,0,0,0,.5754.1655,2.94,2.94,0,0,1,.7192.2759,3.7347,3.7347,0,0,1-1.0788,1.6006,2.7919,2.7919,0,0,1-1.9418.7173,100.4762,100.4762,0,0,1-12.2983-.7725,101.65,101.65,0,0,0-12.4415-.7724,16.8349,16.8349,0,0,0-4.1714.5517q-1.1529.2226-2.0856.4414a8.3781,8.3781,0,0,1-1.4853.2091,9.1318,9.1318,0,0,1-2.3125-.2451q-.5113-.1059-1.0208-.1847l-.4316-2.4282a18.51,18.51,0,0,1,2.5891-.9937q1.7262-.5508,3.596-1.3242,1.7261-.6629,3.3083-1.435t1.7261-1.6558a4.6,4.6,0,0,0,2.1571-2.373,9.94,9.94,0,0,0,.6473-3.1456,19.1957,19.1957,0,0,0-.1439-3.3115,23.2908,23.2908,0,0,1-.2157-2.98,15.4417,15.4417,0,0,1,.6472-4.4707,10.4926,10.4926,0,0,1,2.5172-4.1391q-.7213-.8818-1.4384-1.8208a3.4292,3.4292,0,0,1-.7192-2.1524,20.946,20.946,0,0,1,.5035-4.581q.5027-2.261.9349-4.47a28.4567,28.4567,0,0,0,.7911-4.5254,13.8372,13.8372,0,0,0-.36-4.6358q.4316-1.656,1.0069-3.3667.5732-1.71,1.1507-3.5874.5733-1.875.935-3.6421a17.2332,17.2332,0,0,0,.36-3.4218,44.26,44.26,0,0,0-.36-4.5254,33.0879,33.0879,0,0,0-1.3665-6.2364,19.07,19.07,0,0,0-2.8049-5.5742,5.4418,5.4418,0,0,0-4.53-2.4282,11.9976,11.9976,0,0,0-2.0857.1655,12.0288,12.0288,0,0,1-2.0856.1656,5.4791,5.4791,0,0,1-2.0857-.4414A3.1528,3.1528,0,0,1,79,120.1777v-2.0512a8.3538,8.3538,0,0,1,2.209-.4419q1.3252-.1084,2.8716-.11,1.5462,0,3.0189.0552,1.47.0572,2.503.0552l.4418.4419q7.0686,0,13.9164-.6075,6.8478-.605,13.7687-.6069a7.909,7.909,0,0,1,2.2825.3311,8.1568,8.1568,0,0,1,1.9881.8833V119.34l-6.0373,3.0909a28.6852,28.6852,0,0,1,1.1776,3.6972q.4417,1.8216,1.0308,3.5874.587,1.878,1.2518,3.6426a12.8694,12.8694,0,0,0,1.8408,3.311,41.1149,41.1149,0,0,0,3.9025,5.0225,27.9239,27.9239,0,0,1,2.5771,3.0352,8.4345,8.4345,0,0,1,1.399,3.4218,39.377,39.377,0,0,1,.3681,6.4019,37.8483,37.8483,0,0,1,6.5533,6.1811,65.3221,65.3221,0,0,1,4.9333,6.8433q2.2089,3.534,4.2711,7.23a75.6479,75.6479,0,0,0,4.86,7.56q1.0279-2.3174,2.5772-5.5185,1.5462-3.2,3.5343-6.4571a51.4866,51.4866,0,0,1,4.2706-6.0156,17.8208,17.8208,0,0,1,4.7851-4.1943,38.305,38.305,0,0,1,3.608-9.0513q2.43-4.4128,5.3751-8.94,2.7966-4.4136,5.7433-8.7749a73.3763,73.3763,0,0,0,5.1542-8.8853,11.7418,11.7418,0,0,0-1.62-1.2143,9.3179,9.3179,0,0,1-1.0308-.6621,9.5823,9.5823,0,0,0-1.0309-.6626q-2.2089-1.6554-2.2089-2.649,0-.8818,1.2517-1.49a5.5657,5.5657,0,0,1,2.43-.6069,8.3814,8.3814,0,0,1,2.6507.4414,8.7754,8.7754,0,0,0,2.798.4419q7.213,0,14.4318-.1661,7.2131-.1655,14.5791-.1655a4.0812,4.0812,0,0,1-2.43,3.2564,12.4755,12.4755,0,0,1-5.0806,1.1591,7.2247,7.2247,0,0,0-2.7244,4.0284,19.976,19.976,0,0,0-.5154,4.4707,18.6715,18.6715,0,0,0-.1473,2.2627,11.98,11.98,0,0,1-.1472,1.9316,15.0834,15.0834,0,0,1-.6627,1.6553,3.2121,3.2121,0,0,1-1.2518,1.3247,15.1979,15.1979,0,0,1,.7364,3.3667c.0962,1.0674.1472,2.1157.1472,3.1455q-.1487,1.5468-.2209,3.146c-.051,1.0674-.0736,2.19-.0736,3.3662a2.3974,2.3974,0,0,0,.3682,1.104,11.6885,11.6885,0,0,1,.6626,1.4346,5.6056,5.6056,0,0,1,.4418.7729c.0962.2207.1954.48.2946.7725a5.9194,5.9194,0,0,1,.589,1.3247,62.5939,62.5939,0,0,1,1.1045,10.8169q.0721,5.41.0736,11.0376.1443,5.5211.5154,10.6514a42.9264,42.9264,0,0,0,2.2826,10.7622,2.3584,2.3584,0,0,0,1.0309.331,4.0559,4.0559,0,0,1,1.1781.3311,7.0711,7.0711,0,0,0,2.0617.5517c.6852.2207,1.2517.4243,1.6935.607A.897.897,0,0,1,218.0154,202.2339Z" transform="translate(-37.3472 -64.4912)"/>
  <rect class="cls-3" x="137.6437" y="91.6622" width="30.6796" height="21.1664" transform="translate(-61.1314 88.8547) rotate(-49.8802)"/>
  <rect class="cls-3" x="130.7829" y="79.7686" width="30.6796" height="21.1664" transform="translate(-54.4761 79.3787) rotate(-49.8802)"/>
  <g>
    <path d="M178.6934,96.3207a2.1878,2.1878,0,0,0-.64-1.2719l-2.6561-.1879a9.4743,9.4743,0,0,0-1.7962-1.8369,4.2979,4.2979,0,0,1-1.457-2.2141q-2.3933-3.2953-4.6624-5.8865Q165.21,82.3355,162.9,79.226a7.3833,7.3833,0,0,1-.8551-1.695,6.05,6.05,0,0,0-.9435-1.6963q-1.8808-2.448-3.7667-4.9918c-.511-.6894-1.046-1.3511-1.5658-2.03-.9521-.6709-1.8686-1.4353-2.848-2.1807a9.3244,9.3244,0,0,1-1.7229-1.6514,2.92,2.92,0,0,1-.5443-.3791,2.278,2.278,0,0,1-.8345-.0392.9988.9988,0,0,1-.1093-.0525,2.2,2.2,0,0,1-.4709-.0187,6.899,6.899,0,0,0-1.4017.7394,3.3006,3.3006,0,0,0-.8313,1.1946c-.2835,2.0639-.713,3.5372-2.2735,4.3054l-2.3786,3.409q-1.6266,2.3553-3.5088,4.8972-1.8844,2.5444-3.5087,4.8985-1.8846,2.637-3.6832,4.7565a40.671,40.671,0,0,1-4.28,4.2849,2.7083,2.7083,0,0,1-.8121,1.695,5.9594,5.9594,0,0,1-1.457.9421c-.5422.2523-1.07.5177-1.5812.8a2.4347,2.4347,0,0,0-1.113,1.2719l.0859.565a.9644.9644,0,0,0,.3416.4718l.2556.2824a1.2183,1.2183,0,0,0,.5159.1879,3.3179,3.3179,0,0,0,.4682.1406,1.3225,1.3225,0,0,1,.4728.2365,2.3788,2.3788,0,0,0,1.24-.33,1.9979,1.9979,0,0,1,.9865-.33,5.1057,5.1057,0,0,1,.984.0946,9.0708,9.0708,0,0,1,1.24.3759v-.7529q2.9988.1891,5.8638.5649c.6639.0873,1.3659.1089,2.0572.1487a5.1535,5.1535,0,0,0,.3912-.5419,3.3646,3.3646,0,0,0,.3445-.9961.1923.1923,0,0,1,.0309-.1472c.1656-1.2047-.4027-2.2474-.6184-3.469a2.8234,2.8234,0,0,1-.1052-1.3353,3.9128,3.9128,0,0,1-.05-1.1327c-.0094-.1527-.0385-.2662-.0385-.4378a9.2143,9.2143,0,0,1,1.285-3.4847q1.2826-2.4479,3.0812-5.2742t3.5971-5.4162q1.7986-2.59,2.8233-4.0024,1.5407,1.977,3.7691,4.9445,2.2213,2.9663,4.45,6.0272,2.2249,3.0628,4.0677,5.6986,1.8379,2.6372,2.6083,3.9564c.0046.0051-.0072.021-.0035.0268a9.814,9.814,0,0,1,1.7957,2.4486,3.26,3.26,0,0,0,.3758.5418c.08.07.1693.14.2434.211a.1148.1148,0,0,1,.0321.0033c0,.01,0,.0177,0,.0263a.39.39,0,0,1,.0581.0885,4.6877,4.6877,0,0,0,2.0262.9167c.4656.1169.936.1945,1.4068.27a23.2331,23.2331,0,0,1,2.4568.0348,8.1339,8.1339,0,0,1,2.74.7069,9.1571,9.1571,0,0,0,2.5677.1879,8.0672,8.0672,0,0,0,1.8845-.4244,1.7994,1.7994,0,0,0,1.1967-1.3652A1.5042,1.5042,0,0,1,178.6934,96.3207Z" transform="translate(-37.3472 -64.4912)"/>
    <path d="M177.83,96.6964l-1.101-.7461q-2.5376.3742-4.9948.6992-2.456.3276-4.912.6057l-.508-.373c-.4608.0443-.91.057-1.359.0663.0031.0094.0136.0185.0151.0279.0253.1648-.1373.3124-.2983.43-.0072.0143-.0089.025-.0175.04-.3713.6593-1.3314.9295-1.7136,1.6893a5.8728,5.8728,0,0,0-.3618,2.47,5.1463,5.1463,0,0,1-1.1254,2.7549c-.0593.163-.1046.3175-.1768.4885a28.0371,28.0371,0,0,1-2.5848,4.6116q-1.5239,2.4234-3.3006,4.7974-1.7792,2.3766-3.05,4.24-.5919-.8384-1.4389-2.2824t-1.8618-1.444q-.5955,0-1.9067-1.678t-2.7928-3.8655q-1.4849-2.19-2.795-4.3789-1.3149-2.1894-1.8217-3.2143l.0079-.03a.9693.9693,0,0,1-.0743-.4253,3.4716,3.4716,0,0,1-.3053-.8121,5.1036,5.1036,0,0,0-.9743-2.04,1.6986,1.6986,0,0,1-.4494-.5461c-.0079-.0055-.0206-.0071-.0263-.0144a.2274.2274,0,0,1-.0382-.2992c-.1136.0221-.2251.042-.3421.0676A13.8775,13.8775,0,0,1,134.5594,98h-3.3881a12.72,12.72,0,0,0-2.92-.698,23.1688,23.1688,0,0,0-3.0054-.2339c-.2835,0-.5647.2027-.8482.6057a4.832,4.832,0,0,0-.593,1.0722,1.6807,1.6807,0,0,0,.5079,1.3037,4.005,4.005,0,0,0,1.1861.7461q.677.2787,1.3562.5121a2.0387,2.0387,0,0,1,1.016.698,17.3719,17.3719,0,0,1,2.7927,2.2368,6.28,6.28,0,0,1,1.101,1.5831,4.3591,4.3591,0,0,1,.4253.7929c.1111.2794.2245.5745.3379.8851a18.1678,18.1678,0,0,0,1.609,2.4215q3.1329,4.1021,6.2658,8.1053,3.1257,3.9988,6.3361,7.9941c.0249.0075.067.0117.0692.0234.0154.0792.0409.1821.0637.2788.6586.5609,1.2445,1.2834,2.0244,2.0078a2.0538,2.0538,0,0,0,.2147.1508c.1411.0039.27.0075.3942.0112.0931-.1807.1786-.3584.2918-.5477,1.2826-2.1428,3.225-3.439,4.597-5.4171.1174-.2391.2647-.4482.3674-.7033a.257.257,0,0,1,.0859-.0188c.1015-.1817.2359-.3237.3259-.5192.0337-.0732.1548-.0968.3068-.1024.4819-.6236,1.0239-1.3581,1.6887-2.3193q1.3538-1.9555,3.05-4.1917,1.6905-2.2363,3.5134-4.6116,1.818-2.3764,3.5984-4.3321a38.827,38.827,0,0,1,3.3456-3.3078,6.0746,6.0746,0,0,1,2.6674-1.5376c.1678-.0611.508-.2171,1.016-.4654a15.96,15.96,0,0,0,1.5665-.8851q.8045-.5107,1.4388-.9787c.423-.3094.6356-.5264.6356-.6525v-.6512Z" transform="translate(-37.3472 -64.4912)"/>
  </g>
</svg>
